<svg width="179" height="55" viewBox="0 0 179 55" fill="none" xmlns="http://www.w3.org/2000/svg">
<path d="M7.625 7.70312V16.625H8.6875C8.97917 16.625 9.19271 16.5625 9.32812 16.4375C9.46354 16.3125 9.56771 16.0417 9.64062 15.625C9.76562 14.8854 9.86458 14.4427 9.9375 14.2969C10.0208 14.151 10.1458 14.0781 10.3125 14.0781C11.1354 14.0781 11.599 14.1146 11.7031 14.1875C11.8177 14.25 11.875 14.5104 11.875 14.9688V20.1719C11.875 20.4948 11.8229 20.7083 11.7188 20.8125C11.6146 20.9062 11.2917 20.9531 10.75 20.9531C10.3958 20.9531 10.1562 20.8906 10.0312 20.7656C9.91667 20.6302 9.80208 20.2604 9.6875 19.6562C9.57292 19.1042 9.45833 18.7656 9.34375 18.6406C9.23958 18.5156 9.07292 18.4531 8.84375 18.4531H7.625V29.2188H8.45312C8.96354 29.2188 9.3125 29.0781 9.5 28.7969C9.69792 28.5052 10.0104 27.6771 10.4375 26.3125C10.6146 25.7396 10.7969 25.3646 10.9844 25.1875C11.1719 25.0104 11.5 24.9219 11.9688 24.9219C12.6146 24.9219 12.9375 25.1302 12.9375 25.5469C12.9375 25.6719 12.9167 25.8542 12.875 26.0938L12.2969 29.6406C12.1927 30.2865 12.1042 30.6771 12.0312 30.8125C11.9688 30.9375 11.7604 31 11.4062 31H0.984375C0.723958 31 0.557292 30.9427 0.484375 30.8281C0.411458 30.7031 0.375 30.3542 0.375 29.7812C0.375 29.4167 0.5625 29.151 0.9375 28.9844C1.51042 28.7448 1.79688 28.4167 1.79688 28V8.51562C1.78646 8.31771 1.55208 8.11979 1.09375 7.92188C0.78125 7.78646 0.59375 7.65625 0.53125 7.53125C0.479167 7.40625 0.453125 7.10417 0.453125 6.625C0.453125 6.21875 0.484375 5.97917 0.546875 5.90625C0.609375 5.82292 0.791667 5.78125 1.09375 5.78125H11.0625C11.3125 5.78125 11.4948 5.82292 11.6094 5.90625C11.724 5.98958 11.8125 6.1875 11.875 6.5L12.6719 10.5312C12.7135 10.7396 12.7344 10.8802 12.7344 10.9531C12.7344 11.2344 12.4844 11.375 11.9844 11.375C11.4219 11.375 11.0469 11.3125 10.8594 11.1875C10.6719 11.0521 10.4896 10.724 10.3125 10.2031C9.98958 9.26562 9.70833 8.61458 9.46875 8.25C9.23958 7.88542 8.97917 7.70312 8.6875 7.70312H7.625ZM22.2725 15.7031L23.21 13.6562C23.2204 13.6354 23.2725 13.5365 23.3663 13.3594C23.7621 12.6198 23.96 12.1146 23.96 11.8438C23.96 11.6979 23.835 11.5573 23.585 11.4219C23.4496 11.349 23.361 11.2604 23.3194 11.1562C23.2777 11.0521 23.2569 10.7604 23.2569 10.2812C23.2569 9.97917 23.2829 9.80208 23.335 9.75C23.3871 9.6875 23.5485 9.65625 23.8194 9.65625H26.8663C27.0225 9.67708 27.1163 9.73438 27.1475 9.82812C27.1788 9.91146 27.1944 10.151 27.1944 10.5469C27.1944 10.9948 27.1788 11.2552 27.1475 11.3281C27.1267 11.401 27.0173 11.4792 26.8194 11.5625C26.5798 11.6771 26.3819 11.8958 26.2256 12.2188L23.21 18.4219L26.4756 28.3125C26.5485 28.5208 26.7256 28.75 27.0069 29C27.2256 29.1875 27.335 29.4115 27.335 29.6719V30.4844C27.335 30.724 27.3038 30.8698 27.2413 30.9219C27.1892 30.974 27.0277 31 26.7569 31H21.1475C20.8767 31 20.6944 30.9583 20.6006 30.875C20.5173 30.7812 20.4756 30.5469 20.4756 30.1719C20.4756 29.7552 20.5017 29.4792 20.5538 29.3438C20.6163 29.2083 20.7621 29.0833 20.9913 28.9688C21.1788 28.8854 21.2725 28.7604 21.2725 28.5938C21.2725 28.4792 21.2465 28.349 21.1944 28.2031L20.0225 24.8906L18.96 26.9375C18.5121 27.7917 18.2881 28.3438 18.2881 28.5938C18.2881 28.8125 18.4183 28.9635 18.6788 29.0469C18.9079 29.1406 19.0225 29.3229 19.0225 29.5938L19.0381 30.0938C19.0381 30.5521 19.0121 30.8177 18.96 30.8906C18.9183 30.9635 18.7777 31 18.5381 31H15.5069C15.309 31 15.184 30.974 15.1319 30.9219C15.0902 30.8698 15.0694 30.724 15.0694 30.4844V29.5312C15.0902 29.375 15.1996 29.2344 15.3975 29.1094C15.7621 28.901 16.0225 28.6354 16.1788 28.3125L19.1163 22.1562L15.9288 12.5C15.8142 12.1458 15.6163 11.8698 15.335 11.6719C15.1683 11.5469 15.0538 11.4375 14.9913 11.3438C14.9288 11.25 14.8975 10.8594 14.8975 10.1719C14.8975 9.94271 14.9288 9.80208 14.9913 9.75C15.0538 9.6875 15.1944 9.65625 15.4131 9.65625H21.1788C21.4392 9.65625 21.5954 9.68229 21.6475 9.73438C21.6996 9.78646 21.7256 9.95833 21.7256 10.25V10.8281C21.7256 11.1094 21.6319 11.3177 21.4444 11.4531C21.1944 11.6302 21.0694 11.8542 21.0694 12.125C21.0694 12.1875 21.0798 12.25 21.1006 12.3125L22.2725 15.7031ZM36.7325 6.45312C36.795 6.40104 36.9721 6.16667 37.2638 5.75C37.4513 5.47917 37.7013 5.34375 38.0138 5.34375C38.0867 5.34375 38.3783 5.38021 38.8888 5.45312C38.9929 5.55729 39.071 5.77604 39.1231 6.10938L39.9669 11.4062C40.0085 11.6875 40.0294 11.8542 40.0294 11.9062C40.0294 12.1042 39.9721 12.2344 39.8575 12.2969C39.7533 12.3594 39.4669 12.3906 38.9981 12.3906C38.4669 12.3906 38.1231 12.3229 37.9669 12.1875C37.8106 12.0521 37.5138 11.4896 37.0763 10.5C36.1492 8.40625 35.321 7.35938 34.5919 7.35938C34.071 7.35938 33.8106 7.72396 33.8106 8.45312C33.8106 9.35938 34.5971 11.1406 36.17 13.7969C37.9721 16.8594 39.144 19.0781 39.6856 20.4531C40.2377 21.8177 40.5138 23.349 40.5138 25.0469C40.5138 27.0573 40.0398 28.599 39.0919 29.6719C38.144 30.7448 37.0763 31.2812 35.8888 31.2812C35.1388 31.2812 34.4148 31.0677 33.7169 30.6406C33.446 30.474 33.2325 30.3906 33.0763 30.3906C32.9408 30.3906 32.8315 30.4896 32.7481 30.6875C32.5815 31.0833 32.1752 31.2812 31.5294 31.2812C31.2794 31.2812 31.1075 31.2396 31.0138 31.1562C30.9304 31.0833 30.8679 30.8802 30.8263 30.5469L30.045 25.3438C29.9408 24.6771 29.8888 24.3229 29.8888 24.2812C29.8888 23.9792 30.1648 23.8281 30.7169 23.8281C31.4669 23.8281 31.9096 23.9271 32.045 24.125C32.1804 24.3229 32.3731 24.776 32.6231 25.4844C33.5398 28.0156 34.4617 29.2812 35.3888 29.2812C35.7325 29.2812 36.0085 29.1562 36.2169 28.9062C36.4356 28.6562 36.545 28.3438 36.545 27.9688C36.545 27.3125 36.3054 26.5365 35.8263 25.6406C35.3575 24.7344 34.7794 23.7292 34.0919 22.625C32.446 19.9792 31.2794 17.8698 30.5919 16.2969C29.9148 14.7135 29.5763 13.099 29.5763 11.4531C29.5763 9.59896 29.9825 8.11979 30.795 7.01562C31.6075 5.91146 32.6023 5.35938 33.7794 5.35938C34.5919 5.35938 35.5763 5.72396 36.7325 6.45312ZM48.4894 20.0156V26.4062C48.4894 27.25 48.6508 27.9115 48.9738 28.3906C49.3071 28.8698 49.729 29.1094 50.2394 29.1094C51.031 29.1094 51.6613 28.776 52.13 28.1094C52.6092 27.4323 52.8644 26.5104 52.8956 25.3438C52.906 24.7188 52.9633 24.3438 53.0675 24.2188C53.1821 24.0938 53.5623 24.0312 54.2081 24.0312C54.7706 24.0312 55.1248 24.0885 55.2706 24.2031C55.4269 24.3177 55.505 24.6042 55.505 25.0625C55.505 26.6667 54.9842 28.0938 53.9425 29.3438C52.9008 30.5938 51.5206 31.2188 49.8019 31.2188C47.8331 31.2188 46.1613 30.3281 44.7863 28.5469C43.4113 26.7552 42.7238 24.0625 42.7238 20.4688C42.7238 16.875 43.3592 14.1406 44.63 12.2656C45.9008 10.3802 47.5675 9.4375 49.63 9.4375C51.4008 9.4375 52.8227 10.2292 53.8956 11.8125C54.9685 13.3958 55.505 15.6458 55.505 18.5625V20.0156H48.4894ZM50.5988 18.0625V12.8906C50.5988 11.9115 50.2498 11.4219 49.5519 11.4219C48.8435 11.4219 48.4894 11.9115 48.4894 12.8906V18.0625H50.5988ZM63.4806 13.8125C63.6056 13.5625 63.7567 13.125 63.9338 12.5C64.3296 11.1458 64.715 10.2969 65.09 9.95312C65.4754 9.60938 65.8973 9.4375 66.3556 9.4375C66.9806 9.4375 67.4494 9.73438 67.7619 10.3281C68.0848 10.9219 68.2463 11.6667 68.2463 12.5625C68.2463 14.4896 67.7046 15.4531 66.6213 15.4531C66.0796 15.4531 65.6629 15.1354 65.3713 14.5C65.1942 14.1354 65.0119 13.9531 64.8244 13.9531C64.3556 13.9531 64.1213 14.4688 64.1213 15.5V27.9844C64.1213 28.3802 64.3035 28.6719 64.6681 28.8594C65.0327 29.0365 65.215 29.3229 65.215 29.7188V30.4219C65.215 30.6719 65.1838 30.8333 65.1213 30.9062C65.0692 30.9688 64.9077 31 64.6369 31H58.7463C58.34 31 58.1369 30.8073 58.1369 30.4219V29.5625C58.1369 29.2708 58.2254 29.0781 58.4025 28.9844C58.7567 28.8073 58.9338 28.5365 58.9338 28.1719V12.4375C58.9338 12.0833 58.8088 11.8281 58.5588 11.6719C58.2879 11.5156 58.1317 11.3958 58.09 11.3125C58.0483 11.2188 58.0275 10.9479 58.0275 10.5C58.0275 10.125 58.0796 9.89062 58.1838 9.79688C58.2983 9.70312 58.4858 9.65625 58.7463 9.65625H62.965C63.1629 9.65625 63.2983 9.71354 63.3713 9.82812C63.4442 9.93229 63.4806 10.1927 63.4806 10.6094V13.8125ZM77.6281 21.625L79.3781 13.0469C79.4094 12.8698 79.425 12.6979 79.425 12.5312C79.425 12.0938 79.2531 11.7656 78.9094 11.5469C78.701 11.4219 78.5969 11.1927 78.5969 10.8594V10.0156C78.5969 9.77604 78.7167 9.65625 78.9563 9.65625H81.9563C82.1958 9.65625 82.3417 9.6875 82.3938 9.75C82.4563 9.80208 82.4875 9.95312 82.4875 10.2031V10.9531C82.4875 11.1615 82.4771 11.2917 82.4563 11.3438C82.4458 11.3958 82.3208 11.5 82.0813 11.6562C81.7479 11.8854 81.5135 12.349 81.3781 13.0469L78.1125 29.5781C77.9354 30.5052 77.8208 31.0104 77.7688 31.0938C77.7271 31.1771 77.5865 31.2188 77.3469 31.2188H74.6594C74.5135 31.1979 74.3573 30.7812 74.1906 29.9688L70.7531 12.6875C70.649 12.1875 70.4823 11.8438 70.2531 11.6562C69.9719 11.4167 69.8313 11.2031 69.8313 11.0156C69.8313 10.2969 69.8625 9.89062 69.925 9.79688C69.9875 9.70312 70.1802 9.65625 70.5031 9.65625H75.9875C76.2896 9.65625 76.4875 9.72396 76.5813 9.85938C76.6854 9.98438 76.7375 10.2969 76.7375 10.7969C76.7375 11.0885 76.7115 11.276 76.6594 11.3594C76.6177 11.4427 76.4823 11.5469 76.2531 11.6719C75.9719 11.8281 75.8313 12.0469 75.8313 12.3281C75.8313 12.526 75.8625 12.7656 75.925 13.0469L77.6281 21.625ZM88.9319 5.21875C90.109 5.21875 90.6975 5.61458 90.6975 6.40625C90.6975 7.03125 90.3017 7.5625 89.51 8C88.7288 8.42708 87.8381 8.64062 86.8381 8.64062C85.5465 8.64062 84.9006 8.20833 84.9006 7.34375C84.9006 6.65625 85.3538 6.13021 86.26 5.76562C87.1663 5.40104 88.0569 5.21875 88.9319 5.21875ZM84.5569 11.2031V10.1719C84.5569 9.82812 84.7652 9.65625 85.1819 9.65625H90.1663C90.5204 9.65625 90.6975 9.82812 90.6975 10.1719V28.1406C90.6975 28.3906 90.7131 28.5521 90.7444 28.625C90.7756 28.6979 90.8694 28.7656 91.0256 28.8281C91.4006 28.974 91.5881 29.2969 91.5881 29.7969C91.5881 30.3698 91.5621 30.7135 91.51 30.8281C91.4579 30.9427 91.2913 31 91.01 31H84.9475C84.8017 30.9792 84.7079 30.9167 84.6663 30.8125C84.6246 30.6979 84.6038 30.4062 84.6038 29.9375C84.6038 29.375 84.7392 29.0469 85.01 28.9531C85.3433 28.8385 85.51 28.6302 85.51 28.3281V12.75C85.51 12.1458 85.286 11.7812 84.8381 11.6562C84.6506 11.6042 84.5569 11.4531 84.5569 11.2031ZM99.7356 12.5V27.6406C99.7356 28.0052 99.8398 28.3333 100.048 28.625C100.267 28.9062 100.569 29.0469 100.954 29.0469C101.475 29.0469 101.876 28.7292 102.158 28.0938C102.449 27.4479 102.595 26.6146 102.595 25.5938L102.579 25.1562C102.579 24.6042 102.678 24.276 102.876 24.1719C103.085 24.0677 103.434 24.0156 103.923 24.0156C104.35 24.0156 104.642 24.0938 104.798 24.25C104.954 24.4062 105.033 24.7344 105.033 25.2344C105.033 26.849 104.611 28.2552 103.767 29.4531C102.923 30.6406 101.725 31.2344 100.173 31.2344C98.3502 31.2344 96.8554 30.3177 95.6888 28.4844C94.5221 26.651 93.9388 24.0521 93.9388 20.6875C93.9388 18.1667 94.2356 16.0729 94.8294 14.4062C95.4231 12.7292 96.1419 11.4844 96.9856 10.6719C97.8398 9.84896 98.9023 9.4375 100.173 9.4375C101.684 9.4375 102.876 9.94271 103.751 10.9531C104.637 11.9531 105.079 13.1146 105.079 14.4375C105.079 15.125 104.934 15.7083 104.642 16.1875C104.35 16.6667 103.908 16.9062 103.314 16.9062C102.699 16.9062 102.225 16.6771 101.892 16.2188C101.569 15.7604 101.408 15.1875 101.408 14.5C101.408 14.2083 101.439 13.8698 101.501 13.4844C101.585 13.0365 101.626 12.6823 101.626 12.4219C101.626 12.151 101.527 11.9219 101.329 11.7344C101.131 11.5469 100.902 11.4531 100.642 11.4531C100.392 11.4531 100.178 11.5625 100.001 11.7812C99.8242 12 99.7356 12.2396 99.7356 12.5ZM113.008 20.0156V26.4062C113.008 27.25 113.17 27.9115 113.493 28.3906C113.826 28.8698 114.248 29.1094 114.758 29.1094C115.55 29.1094 116.18 28.776 116.649 28.1094C117.128 27.4323 117.383 26.5104 117.414 25.3438C117.425 24.7188 117.482 24.3438 117.586 24.2188C117.701 24.0938 118.081 24.0312 118.727 24.0312C119.289 24.0312 119.644 24.0885 119.789 24.2031C119.946 24.3177 120.024 24.6042 120.024 25.0625C120.024 26.6667 119.503 28.0938 118.461 29.3438C117.42 30.5938 116.039 31.2188 114.321 31.2188C112.352 31.2188 110.68 30.3281 109.305 28.5469C107.93 26.7552 107.243 24.0625 107.243 20.4688C107.243 16.875 107.878 14.1406 109.149 12.2656C110.42 10.3802 112.086 9.4375 114.149 9.4375C115.92 9.4375 117.341 10.2292 118.414 11.8125C119.487 13.3958 120.024 15.6458 120.024 18.5625V20.0156H113.008ZM115.118 18.0625V12.8906C115.118 11.9115 114.769 11.4219 114.071 11.4219C113.362 11.4219 113.008 11.9115 113.008 12.8906V18.0625H115.118ZM136.031 11.875C137.52 10.25 138.921 9.4375 140.234 9.4375C140.807 9.4375 141.348 9.55729 141.859 9.79688C142.38 10.0365 142.801 10.4792 143.124 11.125C143.447 11.7604 143.609 12.4583 143.609 13.2188V28.0156C143.609 28.2865 143.723 28.5521 143.952 28.8125C144.213 29.1042 144.343 29.3958 144.343 29.6875V30.4375C144.343 30.8125 144.171 31 143.827 31H139.374C138.749 30.5104 138.437 29.75 138.437 28.7188V14C138.437 13.2812 138.088 12.9219 137.39 12.9219C136.952 12.9219 136.614 13.0365 136.374 13.2656C136.145 13.4844 136.031 13.7604 136.031 14.0938V28.2031C136.031 28.4948 136.187 28.7656 136.499 29.0156C136.687 29.1719 136.781 29.3333 136.781 29.5V30.4375C136.781 30.8125 136.604 31 136.249 31H131.702C131.13 30.4375 130.843 29.6771 130.843 28.7188V14C130.843 13.3125 130.562 12.9688 129.999 12.9688C129.77 12.9688 129.374 13.1198 128.812 13.4219C128.76 13.4531 128.682 13.4948 128.577 13.5469V28.2031C128.577 28.4844 128.739 28.75 129.062 29C129.27 29.1562 129.374 29.3542 129.374 29.5938V30.4375C129.374 30.8125 129.187 31 128.812 31H122.937C122.656 31 122.515 30.875 122.515 30.625V29.5938C122.515 29.4375 122.656 29.2135 122.937 28.9219C123.239 28.6198 123.39 28.3802 123.39 28.2031V12.4219C123.39 12.0052 123.208 11.7188 122.843 11.5625C122.624 11.4688 122.515 11.2656 122.515 10.9531V10.1562C122.515 9.82292 122.718 9.65625 123.124 9.65625H128.031C128.395 9.65625 128.577 9.82292 128.577 10.1562V11.7344C129.952 10.2031 131.338 9.4375 132.734 9.4375C134.14 9.4375 135.239 10.25 136.031 11.875ZM154.834 15.8594V12.8438C154.834 12.0104 154.496 11.5938 153.819 11.5938C152.892 11.5938 152.428 12.224 152.428 13.4844C152.428 14.1927 152.345 14.6979 152.178 15C152.022 15.3021 151.657 15.5625 151.084 15.7812C150.522 15.9896 149.918 16.0938 149.272 16.0938C147.949 16.0938 147.288 15.3854 147.288 13.9688C147.288 12.6354 147.86 11.5469 149.006 10.7031C150.163 9.85938 151.668 9.4375 153.522 9.4375C154.741 9.4375 155.834 9.60417 156.803 9.9375C157.782 10.2708 158.564 10.8333 159.147 11.625C159.73 12.4167 160.022 13.2865 160.022 14.2344V28.5C160.043 28.5729 160.199 28.7292 160.491 28.9688C160.699 29.125 160.803 29.3542 160.803 29.6562C160.803 30.0729 160.746 30.3698 160.631 30.5469C160.517 30.7135 160.235 30.8698 159.788 31.0156C159.35 31.1615 158.798 31.2344 158.131 31.2344C157.319 31.2344 156.642 31.0885 156.1 30.7969C155.558 30.4948 155.136 29.9115 154.834 29.0469C153.928 29.9844 153.194 30.5833 152.631 30.8438C152.069 31.1042 151.491 31.2344 150.897 31.2344C149.574 31.2344 148.548 30.7188 147.819 29.6875C147.1 28.6458 146.741 26.9479 146.741 24.5938C146.741 22.2396 147.079 20.6094 147.756 19.7031C148.433 18.7865 149.756 17.9427 151.725 17.1719C152.975 16.6927 154.011 16.2552 154.834 15.8594ZM154.834 17.8906C153.657 18.4115 152.954 19 152.725 19.6562C152.496 20.3021 152.381 21.7656 152.381 24.0469C152.381 25.724 152.475 26.7865 152.663 27.2344C152.85 27.6719 153.173 27.8906 153.631 27.8906C154.433 27.8906 154.834 27.224 154.834 25.8906V17.8906ZM169.076 11.7812C170.315 10.2188 171.732 9.4375 173.326 9.4375C174.419 9.4375 175.253 9.79167 175.826 10.5C176.399 11.1979 176.685 12.0781 176.685 13.1406V28.1094C176.685 28.4427 176.815 28.6979 177.076 28.875C177.315 29.0208 177.435 29.3958 177.435 30C177.435 30.4792 177.393 30.7656 177.31 30.8594C177.237 30.9531 177.076 31 176.826 31H172.435C171.81 30.4688 171.497 29.776 171.497 28.9219V14.0625C171.497 13.25 171.164 12.8438 170.497 12.8438C170.06 12.8438 169.586 13.0729 169.076 13.5312V28.1094C169.076 28.4844 169.258 28.776 169.622 28.9844C169.841 29.1094 169.951 29.3385 169.951 29.6719V30.4688C169.951 30.8229 169.695 31 169.185 31H163.638C163.367 31 163.195 30.9635 163.122 30.8906C163.05 30.8073 163.013 30.6094 163.013 30.2969V29.7188C163.013 29.4167 163.107 29.2031 163.294 29.0781C163.544 28.901 163.706 28.7344 163.779 28.5781C163.852 28.4219 163.888 28.0781 163.888 27.5469V12.2656C163.888 11.901 163.711 11.6354 163.357 11.4688C163.159 11.375 163.06 11.2083 163.06 10.9688V10.1406C163.06 9.81771 163.206 9.65625 163.497 9.65625H168.591C168.81 9.65625 168.945 9.6875 168.997 9.75C169.05 9.8125 169.076 9.94271 169.076 10.1406V11.7812Z" fill="white"/>
<path d="M7.082 38.326V50.954C7.082 51.2327 7.104 51.4233 7.148 51.526C7.20667 51.6287 7.324 51.7167 7.5 51.79C7.52933 51.8047 7.55867 51.8193 7.588 51.834C7.61733 51.834 7.64667 51.8413 7.676 51.856C7.808 51.8853 7.90333 51.9513 7.962 52.054C8.03533 52.142 8.072 52.2593 8.072 52.406C8.072 52.6113 8.01333 52.7653 7.896 52.868C7.77867 52.956 7.59533 53 7.346 53H7.082H3.474H3.254C3.06333 53 2.91667 52.956 2.814 52.868C2.71133 52.7653 2.66 52.6187 2.66 52.428C2.66 52.296 2.68933 52.186 2.748 52.098C2.80667 51.9953 2.88733 51.922 2.99 51.878C3.034 51.8633 3.07067 51.8487 3.1 51.834C3.144 51.8047 3.188 51.7827 3.232 51.768C3.33467 51.6947 3.40067 51.614 3.43 51.526C3.45933 51.438 3.474 51.284 3.474 51.064V40.284C3.474 40.0787 3.45933 39.932 3.43 39.844C3.40067 39.756 3.33467 39.6753 3.232 39.602C3.188 39.5873 3.144 39.5727 3.1 39.558C3.07067 39.5287 3.034 39.5067 2.99 39.492C2.88733 39.448 2.80667 39.382 2.748 39.294C2.68933 39.1913 2.66 39.074 2.66 38.942C2.66 38.7367 2.71133 38.59 2.814 38.502C2.91667 38.3993 3.06333 38.348 3.254 38.348L3.474 38.326H7.082ZM7.742 39.492V38.326H7.874C7.93267 38.3407 7.99133 38.348 8.05 38.348C8.10867 38.348 8.16733 38.348 8.226 38.348C8.47533 38.3627 8.71 38.392 8.93 38.436C9.16467 38.4653 9.37733 38.502 9.568 38.546C10.3747 38.7367 11.0053 39.2207 11.46 39.998C11.9293 40.7607 12.164 41.7067 12.164 42.836C12.164 43.9947 11.922 44.97 11.438 45.762C10.954 46.5393 10.2867 47.0307 9.436 47.236C9.18667 47.2947 8.92267 47.3387 8.644 47.368C8.36533 47.3973 8.06467 47.412 7.742 47.412V46.224C8.094 46.1213 8.32867 45.9527 8.446 45.718C8.578 45.4833 8.644 45.0873 8.644 44.53V41.076C8.644 40.5773 8.578 40.2107 8.446 39.976C8.314 39.7267 8.07933 39.5727 7.742 39.514V39.492ZM39.8084 39.206C39.5444 39.338 39.3537 39.5213 39.2364 39.756C39.1337 39.976 39.0824 40.2987 39.0824 40.724V50.316C39.0824 50.9173 39.1337 51.3427 39.2364 51.592C39.339 51.8413 39.5297 52.0173 39.8084 52.12V53.286C38.415 53.1393 37.3077 52.384 36.4864 51.02C35.665 49.6413 35.2544 47.8667 35.2544 45.696C35.2544 43.5107 35.6724 41.714 36.5084 40.306C37.359 38.898 38.459 38.15 39.8084 38.062V39.206ZM40.4684 39.206V38.04C41.847 38.1427 42.9544 38.898 43.7904 40.306C44.6264 41.714 45.0444 43.5107 45.0444 45.696C45.0444 47.8667 44.6337 49.6413 43.8124 51.02C42.991 52.384 41.8764 53.1393 40.4684 53.286V52.098C40.747 52.0247 40.9377 51.8487 41.0404 51.57C41.1577 51.2913 41.2164 50.8807 41.2164 50.338V40.702C41.2164 40.2913 41.1577 39.976 41.0404 39.756C40.9377 39.5213 40.747 39.3453 40.4684 39.228V39.206ZM73.5038 39.514V38.326H73.7018C74.4498 38.3407 75.0145 38.3847 75.3958 38.458C75.7771 38.5313 76.1218 38.678 76.4298 38.898C76.4591 38.9127 76.4885 38.9347 76.5178 38.964C76.5618 38.9933 76.6058 39.0227 76.6498 39.052C77.0751 39.3747 77.3978 39.8 77.6178 40.328C77.8378 40.8413 77.9478 41.428 77.9478 42.088C77.9478 42.6307 77.8671 43.144 77.7058 43.628C77.5591 44.112 77.3391 44.5007 77.0458 44.794C77.0458 44.8087 77.0385 44.8233 77.0238 44.838C77.0238 44.838 77.0165 44.838 77.0018 44.838C76.8991 44.9553 76.7891 45.0653 76.6718 45.168C76.5545 45.256 76.4151 45.3367 76.2538 45.41C76.1365 45.4833 75.9971 45.5567 75.8358 45.63C75.6891 45.6887 75.5205 45.7547 75.3298 45.828C75.3738 45.8427 75.4178 45.8573 75.4618 45.872C75.5058 45.872 75.5498 45.872 75.5938 45.872C75.8871 45.9453 76.1291 46.0187 76.3198 46.092C76.5105 46.1653 76.6865 46.2607 76.8478 46.378C76.8771 46.3927 76.9065 46.4147 76.9358 46.444C76.9651 46.4587 76.9945 46.4807 77.0238 46.51C77.3025 46.73 77.5151 47.0087 77.6618 47.346C77.8231 47.6833 77.9038 48.0427 77.9038 48.424V50.624C77.9038 50.7413 77.9111 50.8293 77.9258 50.888C77.9551 50.9467 77.9991 50.976 78.0578 50.976C78.0725 50.976 78.0871 50.976 78.1018 50.976C78.1165 50.9613 78.1311 50.954 78.1458 50.954C78.1751 50.9393 78.1971 50.9173 78.2118 50.888C78.2411 50.844 78.2705 50.7927 78.2998 50.734C78.3731 50.6313 78.4391 50.5507 78.4978 50.492C78.5711 50.4333 78.6371 50.404 78.6958 50.404C78.7105 50.404 78.7178 50.404 78.7178 50.404C78.7325 50.404 78.7398 50.404 78.7398 50.404C78.8278 50.4333 78.9011 50.492 78.9598 50.58C79.0331 50.668 79.0845 50.7633 79.1138 50.866C79.1138 50.8953 79.1138 50.9173 79.1138 50.932C79.1138 50.9467 79.1138 50.9613 79.1138 50.976C79.1138 51.0933 79.0845 51.2327 79.0258 51.394C78.9818 51.5553 78.9158 51.7167 78.8278 51.878C78.7398 52.054 78.6298 52.2227 78.4978 52.384C78.3805 52.5453 78.2485 52.692 78.1018 52.824C77.9111 52.9707 77.6985 53.0807 77.4638 53.154C77.2291 53.242 76.9651 53.286 76.6718 53.286C75.9531 53.286 75.3958 53.022 74.9998 52.494C74.6038 51.9513 74.4058 51.196 74.4058 50.228V48.402C74.4058 47.8007 74.3325 47.3533 74.1858 47.06C74.0538 46.7667 73.8265 46.598 73.5038 46.554V45.366C73.8411 45.322 74.0758 45.19 74.2078 44.97C74.3398 44.75 74.4058 44.398 74.4058 43.914V41.054C74.4058 40.614 74.3398 40.2913 74.2078 40.086C74.0905 39.866 73.8558 39.6827 73.5038 39.536V39.514ZM72.8878 38.326V50.954C72.8878 51.218 72.9098 51.4013 72.9538 51.504C72.9978 51.6067 73.1078 51.6947 73.2838 51.768C73.3131 51.768 73.3425 51.7753 73.3718 51.79C73.4011 51.8047 73.4378 51.8193 73.4818 51.834C73.6138 51.878 73.7091 51.9513 73.7678 52.054C73.8411 52.142 73.8778 52.2593 73.8778 52.406C73.8778 52.6113 73.8191 52.7653 73.7018 52.868C73.5845 52.956 73.4011 53 73.1518 53H72.8878H69.2798H69.0598C68.8691 53 68.7225 52.956 68.6198 52.868C68.5171 52.7653 68.4658 52.6187 68.4658 52.428C68.4658 52.296 68.4951 52.186 68.5538 52.098C68.6125 51.9953 68.6931 51.922 68.7958 51.878C68.8398 51.8633 68.8765 51.8487 68.9058 51.834C68.9498 51.8047 68.9865 51.7827 69.0158 51.768C69.1331 51.6947 69.2065 51.614 69.2358 51.526C69.2651 51.4233 69.2798 51.2693 69.2798 51.064V40.284C69.2798 40.0787 69.2651 39.932 69.2358 39.844C69.2065 39.756 69.1405 39.6753 69.0378 39.602C68.9938 39.5873 68.9498 39.5727 68.9058 39.558C68.8765 39.5287 68.8398 39.5067 68.7958 39.492C68.6931 39.4333 68.6125 39.36 68.5538 39.272C68.4951 39.184 68.4658 39.0667 68.4658 38.92C68.4658 38.7293 68.5171 38.59 68.6198 38.502C68.7225 38.3993 68.8691 38.348 69.0598 38.348L69.2798 38.326H72.8878ZM108.471 38.326V50.954C108.471 51.2327 108.493 51.4233 108.537 51.526C108.596 51.6287 108.72 51.7167 108.911 51.79C108.94 51.8047 108.97 51.8193 108.999 51.834C109.028 51.834 109.058 51.8413 109.087 51.856C109.204 51.8853 109.3 51.9513 109.373 52.054C109.446 52.142 109.483 52.2593 109.483 52.406C109.483 52.6113 109.424 52.7653 109.307 52.868C109.19 52.956 109.006 53 108.757 53H108.493H104.885H104.599C104.364 53 104.188 52.956 104.071 52.868C103.954 52.7653 103.895 52.6113 103.895 52.406C103.895 52.2593 103.924 52.142 103.983 52.054C104.056 51.9513 104.152 51.8853 104.269 51.856C104.313 51.8413 104.35 51.834 104.379 51.834C104.408 51.8193 104.438 51.8047 104.467 51.79C104.658 51.7167 104.775 51.6287 104.819 51.526C104.863 51.4233 104.885 51.24 104.885 50.976V38.326H108.471ZM102.113 38.326H104.225V39.646C103.946 39.866 103.719 40.1887 103.543 40.614C103.367 41.0247 103.242 41.538 103.169 42.154L103.081 42.792C103.066 43.0267 103.008 43.2027 102.905 43.32C102.817 43.4373 102.707 43.496 102.575 43.496C102.443 43.496 102.333 43.43 102.245 43.298C102.157 43.166 102.113 42.9973 102.113 42.792V38.326ZM111.243 38.326V42.77C111.243 42.99 111.199 43.166 111.111 43.298C111.023 43.43 110.906 43.496 110.759 43.496C110.627 43.496 110.517 43.4373 110.429 43.32C110.341 43.188 110.282 43.0193 110.253 42.814L110.165 42.132C110.106 41.5307 109.989 41.0247 109.813 40.614C109.637 40.1887 109.41 39.8733 109.131 39.668V38.326H111.243ZM137.342 41.076L137.76 43.298L136.33 50.228C136.315 50.2867 136.3 50.3453 136.286 50.404C136.286 50.448 136.286 50.492 136.286 50.536C136.271 50.58 136.264 50.6313 136.264 50.69C136.264 50.734 136.264 50.778 136.264 50.822C136.264 51.0273 136.308 51.218 136.396 51.394C136.484 51.5553 136.601 51.68 136.748 51.768L137.012 51.922C137.1 51.9953 137.166 52.0833 137.21 52.186C137.268 52.274 137.298 52.3767 137.298 52.494C137.298 52.6553 137.246 52.78 137.144 52.868C137.041 52.956 136.894 53 136.704 53H134.658C134.467 53 134.313 52.9487 134.196 52.846C134.078 52.7433 134.02 52.604 134.02 52.428C134.02 52.3107 134.042 52.208 134.086 52.12C134.144 52.032 134.24 51.9513 134.372 51.878C134.709 51.6727 134.958 51.438 135.12 51.174C135.281 50.91 135.42 50.4993 135.538 49.942L137.342 41.076ZM137.914 38.326H141.148L143.392 50.954C143.392 50.998 143.392 51.042 143.392 51.086C143.406 51.1153 143.421 51.1447 143.436 51.174C143.48 51.394 143.531 51.5553 143.59 51.658C143.648 51.7607 143.736 51.8413 143.854 51.9C143.868 51.9147 143.883 51.9293 143.898 51.944C143.912 51.944 143.927 51.944 143.942 51.944C144.044 52.0173 144.118 52.098 144.162 52.186C144.206 52.2593 144.228 52.362 144.228 52.494C144.228 52.6553 144.169 52.78 144.052 52.868C143.949 52.956 143.795 53 143.59 53H139.564C139.417 53 139.292 52.956 139.19 52.868C139.087 52.7653 139.036 52.626 139.036 52.45C139.036 52.362 139.043 52.2887 139.058 52.23C139.072 52.1713 139.102 52.12 139.146 52.076C139.175 52.0467 139.212 52.0173 139.256 51.988C139.3 51.944 139.351 51.9 139.41 51.856C139.424 51.8413 139.432 51.834 139.432 51.834C139.446 51.8193 139.461 51.812 139.476 51.812C139.564 51.7387 139.622 51.6653 139.652 51.592C139.681 51.504 139.696 51.394 139.696 51.262L139.674 50.954L139.41 49.392H137.166L137.386 48.072H139.19L137.716 39.382L137.914 38.326ZM171.747 53H168.139H167.919C167.728 53 167.582 52.956 167.479 52.868C167.376 52.7653 167.325 52.6187 167.325 52.428C167.325 52.296 167.354 52.186 167.413 52.098C167.472 51.9953 167.552 51.922 167.655 51.878C167.699 51.8633 167.736 51.8487 167.765 51.834C167.809 51.8047 167.853 51.7827 167.897 51.768C168 51.6947 168.066 51.614 168.095 51.526C168.124 51.438 168.139 51.284 168.139 51.064V40.284C168.139 40.0787 168.124 39.932 168.095 39.844C168.066 39.756 168 39.6753 167.897 39.602C167.853 39.5873 167.809 39.5727 167.765 39.558C167.736 39.5287 167.699 39.5067 167.655 39.492C167.552 39.448 167.472 39.382 167.413 39.294C167.354 39.1913 167.325 39.074 167.325 38.942C167.325 38.7367 167.376 38.59 167.479 38.502C167.582 38.3993 167.728 38.348 167.919 38.348L168.139 38.326H171.747H172.011C172.26 38.3553 172.444 38.4213 172.561 38.524C172.678 38.612 172.737 38.7587 172.737 38.964C172.737 39.1107 172.7 39.2353 172.627 39.338C172.568 39.426 172.473 39.492 172.341 39.536C172.297 39.5507 172.26 39.5653 172.231 39.58C172.202 39.5947 172.172 39.602 172.143 39.602C171.967 39.6753 171.857 39.7633 171.813 39.866C171.769 39.9687 171.747 40.1447 171.747 40.394V53ZM172.341 53V51.79C172.561 51.7607 172.737 51.7167 172.869 51.658C173.001 51.5993 173.118 51.526 173.221 51.438C173.5 51.218 173.749 50.888 173.969 50.448C174.189 49.9933 174.365 49.4727 174.497 48.886C174.526 48.7687 174.548 48.666 174.563 48.578C174.592 48.49 174.622 48.4093 174.651 48.336C174.695 48.1893 174.746 48.0867 174.805 48.028C174.878 47.9693 174.959 47.94 175.047 47.94C175.194 47.94 175.296 47.9987 175.355 48.116C175.414 48.2187 175.443 48.3947 175.443 48.644V53H172.341Z" fill="white"/>
</svg>
