<svg width="113" height="116" viewBox="0 0 113 116" fill="none" xmlns="http://www.w3.org/2000/svg">
<path d="M9.32812 83.9608L11.7188 71.9139C11.7396 71.8098 11.75 71.7004 11.75 71.5858C11.75 71.1691 11.4844 70.8358 10.9531 70.5858C10.6198 70.4191 10.4531 70.2577 10.4531 70.1014C10.4531 70.0285 10.4583 69.9556 10.4688 69.8827V69.6327C10.4688 69.1639 10.4896 68.8723 10.5312 68.7577C10.5833 68.6327 10.7135 68.5702 10.9219 68.5702H14.7969C14.974 68.5702 15.0781 68.6223 15.1094 68.7264C15.151 68.8202 15.1719 69.0754 15.1719 69.4921C15.1719 69.9816 15.1615 70.2837 15.1406 70.3983C15.1198 70.5129 15.0469 70.6066 14.9219 70.6796C14.6094 70.8879 14.4115 71.0702 14.3281 71.2264C14.2448 71.3723 14.1406 71.7525 14.0156 72.3671L9.95312 92.6639L9.70312 93.8983C9.68229 94.0129 9.57292 94.0702 9.375 94.0702H6.23438C6.09896 94.0702 5.99479 94.0077 5.92188 93.8827C5.84896 93.7577 5.74479 93.3514 5.60938 92.6639L1.53125 71.9139C1.4375 71.3931 1.1875 71.0129 0.78125 70.7733C0.572917 70.6483 0.442708 70.5546 0.390625 70.4921C0.348958 70.4191 0.328125 70.2733 0.328125 70.0546C0.328125 69.9816 0.333333 69.9087 0.34375 69.8358C0.354167 69.7212 0.359375 69.6119 0.359375 69.5077C0.359375 69.4348 0.354167 69.3671 0.34375 69.3046V69.0858C0.34375 68.7421 0.46875 68.5702 0.71875 68.5702H7.8125C8.05208 68.5702 8.17188 68.7889 8.17188 69.2264C8.17188 69.2369 8.16146 69.5389 8.14062 70.1327C8.11979 70.2681 8.01042 70.3827 7.8125 70.4764C7.35417 70.6952 7.125 71.0441 7.125 71.5233C7.125 71.6379 7.14062 71.7681 7.17188 71.9139L9.32812 83.9608ZM24.085 69.2421C24.1475 69.19 24.3246 68.9556 24.6162 68.5389C24.8037 68.2681 25.0537 68.1327 25.3662 68.1327C25.4392 68.1327 25.7308 68.1691 26.2412 68.2421C26.3454 68.3462 26.4235 68.565 26.4756 68.8983L27.3194 74.1952C27.361 74.4764 27.3819 74.6431 27.3819 74.6952C27.3819 74.8931 27.3246 75.0233 27.21 75.0858C27.1058 75.1483 26.8194 75.1796 26.3506 75.1796C25.8194 75.1796 25.4756 75.1119 25.3194 74.9764C25.1631 74.841 24.8662 74.2785 24.4287 73.2889C23.5017 71.1952 22.6735 70.1483 21.9444 70.1483C21.4235 70.1483 21.1631 70.5129 21.1631 71.2421C21.1631 72.1483 21.9496 73.9296 23.5225 76.5858C25.3246 79.6483 26.4965 81.8671 27.0381 83.2421C27.5902 84.6066 27.8662 86.1379 27.8662 87.8358C27.8662 89.8462 27.3923 91.3879 26.4444 92.4608C25.4965 93.5337 24.4287 94.0702 23.2412 94.0702C22.4912 94.0702 21.7673 93.8566 21.0694 93.4296C20.7985 93.2629 20.585 93.1796 20.4287 93.1796C20.2933 93.1796 20.184 93.2785 20.1006 93.4764C19.934 93.8723 19.5277 94.0702 18.8819 94.0702C18.6319 94.0702 18.46 94.0285 18.3662 93.9452C18.2829 93.8723 18.2204 93.6691 18.1787 93.3358L17.3975 88.1327C17.2933 87.466 17.2412 87.1119 17.2412 87.0702C17.2412 86.7681 17.5173 86.6171 18.0694 86.6171C18.8194 86.6171 19.2621 86.716 19.3975 86.9139C19.5329 87.1119 19.7256 87.565 19.9756 88.2733C20.8923 90.8046 21.8142 92.0702 22.7412 92.0702C23.085 92.0702 23.361 91.9452 23.5694 91.6952C23.7881 91.4452 23.8975 91.1327 23.8975 90.7577C23.8975 90.1014 23.6579 89.3254 23.1787 88.4296C22.71 87.5233 22.1319 86.5181 21.4444 85.4139C19.7985 82.7681 18.6319 80.6587 17.9444 79.0858C17.2673 77.5025 16.9287 75.8879 16.9287 74.2421C16.9287 72.3879 17.335 70.9087 18.1475 69.8046C18.96 68.7004 19.9548 68.1483 21.1319 68.1483C21.9444 68.1483 22.9287 68.5129 24.085 69.2421ZM40.8575 75.6639L44.9044 90.5858C45.0398 91.0962 45.3002 91.4452 45.6856 91.6327C45.9356 91.7577 46.0606 92.0389 46.0606 92.4764C46.0606 92.5285 46.045 92.841 46.0138 93.4139C45.9825 93.6639 45.7638 93.7889 45.3575 93.7889H39.1388C38.9096 93.7889 38.7585 93.7473 38.6856 93.6639C38.6127 93.5806 38.5763 93.3514 38.5763 92.9764C38.5763 92.9139 38.5867 92.6431 38.6075 92.1639C38.6388 91.9764 38.7638 91.841 38.9825 91.7577C39.3158 91.6431 39.4825 91.4504 39.4825 91.1796C39.4825 91.1066 39.4721 91.0181 39.4513 90.9139L37.2638 83.0389L36.7325 84.2108V90.5858C36.7325 91.1171 36.9669 91.5233 37.4356 91.8046C37.6335 91.9191 37.7325 92.1796 37.7325 92.5858C37.7325 93.065 37.6908 93.3879 37.6075 93.5546C37.5242 93.7108 37.321 93.7889 36.9981 93.7889H30.4513C30.2117 93.7889 30.045 93.7421 29.9513 93.6483C29.8575 93.5441 29.8106 93.2629 29.8106 92.8046C29.8106 92.3462 29.8471 92.0598 29.92 91.9452C29.9929 91.8202 30.1335 91.7108 30.3419 91.6171C30.7273 91.4608 30.92 91.1796 30.92 90.7733V72.0077C30.92 71.5389 30.7325 71.19 30.3575 70.9608C30.1075 70.8046 29.9565 70.6796 29.9044 70.5858C29.8523 70.4816 29.8263 70.2733 29.8263 69.9608C29.8263 69.2525 29.8523 68.8462 29.9044 68.7421C29.9565 68.6275 30.1075 68.5702 30.3575 68.5702H37.4825C37.8158 68.5702 37.9825 68.7056 37.9825 68.9764C37.9825 69.8202 37.9669 70.3098 37.9356 70.4452C37.9044 70.5702 37.7533 70.7108 37.4825 70.8671C36.9825 71.1275 36.7325 71.4608 36.7325 71.8671V79.8827L40.1388 72.1483C40.3263 71.7212 40.42 71.3983 40.42 71.1796C40.42 71.0441 40.295 70.8827 40.045 70.6952C39.7742 70.5077 39.6075 70.3462 39.545 70.2108C39.4929 70.0754 39.4669 69.7316 39.4669 69.1796C39.4669 68.7733 39.6179 68.5702 39.92 68.5702H44.0606C44.3002 68.5702 44.446 68.6171 44.4981 68.7108C44.5502 68.8046 44.5763 69.0754 44.5763 69.5233C44.5763 70.0025 44.5398 70.2941 44.4669 70.3983C44.4044 70.5025 44.196 70.6275 43.8419 70.7733C43.571 70.8775 43.3992 70.9608 43.3263 71.0233C43.2533 71.0858 43.1648 71.2212 43.0606 71.4296L40.8575 75.6639ZM66.9338 68.1483H67.7463C67.9338 68.1483 68.0744 68.2212 68.1681 68.3671C68.2619 68.5025 68.3296 68.8775 68.3713 69.4921L68.7306 74.5233C68.741 74.6275 68.7463 74.7264 68.7463 74.8202C68.7463 75.1848 68.6838 75.44 68.5588 75.5858C68.4338 75.7316 68.1838 75.8046 67.8088 75.8046C67.3504 75.8046 67.0327 75.6848 66.8556 75.4452C66.6785 75.2056 66.5067 74.6379 66.34 73.7421C65.9129 71.4712 65.3035 70.3358 64.5119 70.3358C63.8556 70.3358 63.5275 71.1535 63.5275 72.7889V90.3671C63.5275 91.5337 63.8713 92.1171 64.5588 92.1171C65.4338 92.1171 65.9233 91.1431 66.0275 89.1952C66.0588 88.6327 66.1681 88.2421 66.3556 88.0233C66.5431 87.8046 66.9285 87.6952 67.5119 87.6952C67.9494 87.6952 68.2515 87.7785 68.4181 87.9452C68.5952 88.1014 68.6838 88.4139 68.6838 88.8827C68.6838 90.3723 68.2358 91.6119 67.34 92.6014C66.4442 93.5806 65.3296 94.0702 63.9963 94.0702C62.7046 94.0702 61.5692 93.6587 60.59 92.8358C59.6108 92.0129 58.7619 90.5962 58.0431 88.5858C57.3348 86.565 56.9806 83.9816 56.9806 80.8358C56.9806 77.8671 57.2775 75.4973 57.8713 73.7264C58.4754 71.9452 59.241 70.5702 60.1681 69.6014C61.1056 68.6327 62.1942 68.1483 63.4338 68.1483C64.1838 68.1483 64.8348 68.3514 65.3869 68.7577C65.5952 68.9035 65.7515 68.9764 65.8556 68.9764C65.9806 68.9764 66.1577 68.8306 66.3869 68.5389C66.5848 68.2785 66.7671 68.1483 66.9338 68.1483ZM77.6438 70.4921V79.4139H78.7063C78.9979 79.4139 79.2115 79.3514 79.3469 79.2264C79.4823 79.1014 79.5865 78.8306 79.6594 78.4139C79.7844 77.6744 79.8833 77.2316 79.9563 77.0858C80.0396 76.94 80.1646 76.8671 80.3313 76.8671C81.1542 76.8671 81.6177 76.9035 81.7219 76.9764C81.8365 77.0389 81.8938 77.2994 81.8938 77.7577V82.9608C81.8938 83.2837 81.8417 83.4973 81.7375 83.6014C81.6333 83.6952 81.3104 83.7421 80.7688 83.7421C80.4146 83.7421 80.175 83.6796 80.05 83.5546C79.9354 83.4191 79.8208 83.0494 79.7063 82.4452C79.5917 81.8931 79.4771 81.5546 79.3625 81.4296C79.2583 81.3046 79.0917 81.2421 78.8625 81.2421H77.6438V92.0077H78.4719C78.9823 92.0077 79.3313 91.8671 79.5188 91.5858C79.7167 91.2941 80.0292 90.466 80.4563 89.1014C80.6333 88.5285 80.8156 88.1535 81.0031 87.9764C81.1906 87.7994 81.5188 87.7108 81.9875 87.7108C82.6333 87.7108 82.9563 87.9191 82.9563 88.3358C82.9563 88.4608 82.9354 88.6431 82.8938 88.8827L82.3156 92.4296C82.2115 93.0754 82.1229 93.466 82.05 93.6014C81.9875 93.7264 81.7792 93.7889 81.425 93.7889H71.0031C70.7427 93.7889 70.576 93.7316 70.5031 93.6171C70.4302 93.4921 70.3938 93.1431 70.3938 92.5702C70.3938 92.2056 70.5813 91.94 70.9563 91.7733C71.5292 91.5337 71.8156 91.2056 71.8156 90.7889V71.3046C71.8052 71.1066 71.5708 70.9087 71.1125 70.7108C70.8 70.5754 70.6125 70.4452 70.55 70.3202C70.4979 70.1952 70.4719 69.8931 70.4719 69.4139C70.4719 69.0077 70.5031 68.7681 70.5656 68.6952C70.6281 68.6119 70.8104 68.5702 71.1125 68.5702H81.0813C81.3313 68.5702 81.5135 68.6119 81.6281 68.6952C81.7427 68.7785 81.8313 68.9764 81.8938 69.2889L82.6906 73.3202C82.7323 73.5285 82.7531 73.6691 82.7531 73.7421C82.7531 74.0233 82.5031 74.1639 82.0031 74.1639C81.4406 74.1639 81.0656 74.1014 80.8781 73.9764C80.6906 73.841 80.5083 73.5129 80.3313 72.9921C80.0083 72.0546 79.7271 71.4035 79.4875 71.0389C79.2583 70.6744 78.9979 70.4921 78.7063 70.4921H77.6438ZM91.885 92.0233H92.7756C93.234 92.0233 93.5725 91.841 93.7913 91.4764C94.01 91.1119 94.2965 90.2681 94.6506 88.9452C94.7756 88.4348 94.9267 88.1275 95.1038 88.0233C95.2808 87.9087 95.5829 87.8514 96.01 87.8514C96.4788 87.8514 96.7808 87.8931 96.9163 87.9764C97.0517 88.0494 97.1194 88.19 97.1194 88.3983C97.1194 88.5441 97.0933 88.7785 97.0413 89.1014L96.4944 92.8358C96.4319 93.2212 96.3485 93.4764 96.2444 93.6014C96.1506 93.7264 95.9527 93.7889 95.6506 93.7889H85.3694C84.9319 93.7889 84.7131 93.5181 84.7131 92.9764C84.7131 92.5598 84.7392 92.2941 84.7913 92.1796C84.8538 92.0546 84.9788 91.9608 85.1663 91.8983C85.76 91.7108 86.0569 91.1639 86.0569 90.2577V71.6952C86.0569 71.3098 85.8694 71.0337 85.4944 70.8671C85.1715 70.7316 84.9735 70.5806 84.9006 70.4139C84.8277 70.2473 84.7913 69.9712 84.7913 69.5858C84.7913 69.1275 84.8225 68.8462 84.885 68.7421C84.9475 68.6275 85.1142 68.5702 85.385 68.5702H92.5881C92.859 68.5702 93.0413 68.6379 93.135 68.7733C93.2392 68.8983 93.2913 69.2473 93.2913 69.8202C93.2913 70.1639 93.2548 70.3983 93.1819 70.5233C93.1194 70.6379 92.9475 70.7421 92.6663 70.8358C92.1454 71.0129 91.885 71.3566 91.885 71.8671V92.0233ZM105.845 92.0233H106.736C107.194 92.0233 107.533 91.841 107.751 91.4764C107.97 91.1119 108.256 90.2681 108.611 88.9452C108.736 88.4348 108.887 88.1275 109.064 88.0233C109.241 87.9087 109.543 87.8514 109.97 87.8514C110.439 87.8514 110.741 87.8931 110.876 87.9764C111.012 88.0494 111.079 88.19 111.079 88.3983C111.079 88.5441 111.053 88.7785 111.001 89.1014L110.454 92.8358C110.392 93.2212 110.309 93.4764 110.204 93.6014C110.111 93.7264 109.913 93.7889 109.611 93.7889H99.3294C98.8919 93.7889 98.6731 93.5181 98.6731 92.9764C98.6731 92.5598 98.6992 92.2941 98.7513 92.1796C98.8138 92.0546 98.9388 91.9608 99.1263 91.8983C99.72 91.7108 100.017 91.1639 100.017 90.2577V71.6952C100.017 71.3098 99.8294 71.0337 99.4544 70.8671C99.1315 70.7316 98.9335 70.5806 98.8606 70.4139C98.7877 70.2473 98.7513 69.9712 98.7513 69.5858C98.7513 69.1275 98.7825 68.8462 98.845 68.7421C98.9075 68.6275 99.0742 68.5702 99.345 68.5702H106.548C106.819 68.5702 107.001 68.6379 107.095 68.7733C107.199 68.8983 107.251 69.2473 107.251 69.8202C107.251 70.1639 107.215 70.3983 107.142 70.5233C107.079 70.6379 106.908 70.7421 106.626 70.8358C106.105 71.0129 105.845 71.3566 105.845 71.8671V92.0233Z" fill="#4B5320"/>
<path d="M4.62 100.449V113.789H1.34H1.14C0.966667 113.789 0.833333 113.749 0.74 113.669C0.646667 113.576 0.6 113.442 0.6 113.269C0.6 113.149 0.626667 113.049 0.68 112.969C0.733333 112.876 0.806667 112.809 0.9 112.769C0.94 112.756 0.973333 112.742 1 112.729C1.04 112.702 1.08 112.682 1.12 112.669C1.21333 112.602 1.27333 112.529 1.3 112.449C1.32667 112.369 1.34 112.229 1.34 112.029V102.229C1.34 102.042 1.32667 101.909 1.3 101.829C1.27333 101.749 1.21333 101.676 1.12 101.609C1.08 101.596 1.04 101.582 1 101.569C0.973333 101.542 0.94 101.522 0.9 101.509C0.806667 101.469 0.733333 101.409 0.68 101.329C0.626667 101.236 0.6 101.129 0.6 101.009C0.6 100.822 0.646667 100.689 0.74 100.609C0.833333 100.516 0.966667 100.469 1.14 100.469L1.34 100.449H4.62ZM5.22 101.549V100.449C5.51333 100.462 5.76 100.489 5.96 100.529C6.17333 100.569 6.38 100.636 6.58 100.729C6.66 100.769 6.74 100.816 6.82 100.869C6.9 100.909 6.98667 100.962 7.08 101.029C7.84 101.562 8.42 102.349 8.82 103.389C9.22 104.429 9.42 105.662 9.42 107.089C9.42 108.529 9.20667 109.796 8.78 110.889C8.35333 111.969 7.74667 112.782 6.96 113.329C6.88 113.382 6.80667 113.429 6.74 113.469C6.67333 113.509 6.60667 113.549 6.54 113.589C6.36667 113.669 6.18 113.722 5.98 113.749C5.78 113.776 5.52667 113.789 5.22 113.789V112.729C5.56667 112.636 5.79333 112.482 5.9 112.269C6.00667 112.042 6.06 111.629 6.06 111.029V103.289C6.06 102.742 5.99333 102.336 5.86 102.069C5.74 101.802 5.52667 101.636 5.22 101.569V101.549ZM14.8866 113.789H11.6266H11.4266C11.2399 113.789 11.0999 113.749 11.0066 113.669C10.9132 113.576 10.8666 113.442 10.8666 113.269C10.8666 113.149 10.8932 113.049 10.9466 112.969C10.9999 112.876 11.0732 112.809 11.1666 112.769C11.2066 112.756 11.2466 112.742 11.2866 112.729C11.3266 112.702 11.3599 112.682 11.3866 112.669C11.4932 112.602 11.5599 112.529 11.5866 112.449C11.6132 112.369 11.6266 112.229 11.6266 112.029V102.229C11.6266 102.042 11.6132 101.909 11.5866 101.829C11.5599 101.749 11.4932 101.676 11.3866 101.609C11.3599 101.596 11.3266 101.582 11.2866 101.569C11.2466 101.542 11.2066 101.522 11.1666 101.509C11.0732 101.469 10.9999 101.409 10.9466 101.329C10.8932 101.236 10.8666 101.129 10.8666 101.009C10.8666 100.822 10.9132 100.689 11.0066 100.609C11.1132 100.516 11.2532 100.469 11.4266 100.469L11.6266 100.449H14.8866H15.0866C15.2732 100.476 15.4066 100.529 15.4866 100.609C15.5666 100.689 15.6066 100.816 15.6066 100.989C15.6066 101.122 15.5866 101.236 15.5466 101.329C15.5066 101.409 15.4332 101.469 15.3266 101.509L15.1066 101.589C15.0399 101.629 14.9866 101.702 14.9466 101.809C14.9066 101.916 14.8866 102.062 14.8866 102.249V112.009C14.8866 112.196 14.9066 112.349 14.9466 112.469C14.9866 112.576 15.0399 112.642 15.1066 112.669L15.3266 112.749C15.4332 112.802 15.5066 112.876 15.5466 112.969C15.5866 113.049 15.6066 113.156 15.6066 113.289C15.6066 113.462 15.5666 113.589 15.4866 113.669C15.4066 113.749 15.2732 113.789 15.0866 113.789H14.8866ZM15.4866 106.489H16.6666V102.229C16.6666 102.056 16.6466 101.916 16.6066 101.809C16.5799 101.702 16.5332 101.636 16.4666 101.609L16.2266 101.489C16.1332 101.462 16.0599 101.409 16.0066 101.329C15.9666 101.249 15.9466 101.142 15.9466 101.009C15.9466 100.822 15.9866 100.689 16.0666 100.609C16.1599 100.516 16.2932 100.469 16.4666 100.469L16.6666 100.449H19.9466H20.1466C20.3332 100.476 20.4666 100.529 20.5466 100.609C20.6399 100.689 20.6866 100.822 20.6866 101.009C20.6866 101.129 20.6599 101.236 20.6066 101.329C20.5666 101.409 20.4932 101.469 20.3866 101.509C20.3466 101.522 20.3066 101.542 20.2666 101.569C20.2399 101.582 20.2066 101.596 20.1666 101.609C20.0732 101.676 20.0132 101.749 19.9866 101.829C19.9599 101.909 19.9466 102.049 19.9466 102.249V112.009C19.9466 112.222 19.9532 112.369 19.9666 112.449C19.9932 112.529 20.0599 112.602 20.1666 112.669C20.1932 112.682 20.2266 112.702 20.2666 112.729C20.3066 112.742 20.3466 112.756 20.3866 112.769C20.4932 112.809 20.5666 112.876 20.6066 112.969C20.6599 113.049 20.6866 113.149 20.6866 113.269C20.6866 113.442 20.6399 113.576 20.5466 113.669C20.4666 113.749 20.3332 113.789 20.1466 113.789H19.9466H16.6666H16.4666C16.2932 113.789 16.1599 113.749 16.0666 113.669C15.9866 113.589 15.9466 113.462 15.9466 113.289C15.9466 113.169 15.9732 113.062 16.0266 112.969C16.0799 112.876 16.1466 112.809 16.2266 112.769L16.4666 112.649C16.5332 112.636 16.5799 112.576 16.6066 112.469C16.6466 112.349 16.6666 112.202 16.6666 112.029V107.569H15.4866V106.489ZM24.8747 102.949L25.2547 104.969L23.9547 111.269C23.9414 111.322 23.928 111.376 23.9147 111.429C23.9147 111.469 23.9147 111.509 23.9147 111.549C23.9014 111.589 23.8947 111.636 23.8947 111.689C23.8947 111.729 23.8947 111.769 23.8947 111.809C23.8947 111.996 23.9347 112.169 24.0147 112.329C24.0947 112.476 24.2014 112.589 24.3347 112.669L24.5747 112.809C24.6547 112.876 24.7147 112.956 24.7547 113.049C24.808 113.129 24.8347 113.222 24.8347 113.329C24.8347 113.476 24.788 113.589 24.6947 113.669C24.6014 113.749 24.468 113.789 24.2947 113.789H22.4347C22.2614 113.789 22.1214 113.742 22.0147 113.649C21.908 113.556 21.8547 113.429 21.8547 113.269C21.8547 113.162 21.8747 113.069 21.9147 112.989C21.968 112.909 22.0547 112.836 22.1747 112.769C22.4814 112.582 22.708 112.369 22.8547 112.129C23.0014 111.889 23.128 111.516 23.2347 111.009L24.8747 102.949ZM25.3947 100.449H28.3347L30.3747 111.929C30.3747 111.969 30.3747 112.009 30.3747 112.049C30.388 112.076 30.4014 112.102 30.4147 112.129C30.4547 112.329 30.5014 112.476 30.5547 112.569C30.608 112.662 30.688 112.736 30.7947 112.789C30.808 112.802 30.8214 112.816 30.8347 112.829C30.848 112.829 30.8614 112.829 30.8747 112.829C30.968 112.896 31.0347 112.969 31.0747 113.049C31.1147 113.116 31.1347 113.209 31.1347 113.329C31.1347 113.476 31.0814 113.589 30.9747 113.669C30.8814 113.749 30.7414 113.789 30.5547 113.789H26.8947C26.7614 113.789 26.648 113.749 26.5547 113.669C26.4614 113.576 26.4147 113.449 26.4147 113.289C26.4147 113.209 26.4214 113.142 26.4347 113.089C26.448 113.036 26.4747 112.989 26.5147 112.949C26.5414 112.922 26.5747 112.896 26.6147 112.869C26.6547 112.829 26.7014 112.789 26.7547 112.749C26.768 112.736 26.7747 112.729 26.7747 112.729C26.788 112.716 26.8014 112.709 26.8147 112.709C26.8947 112.642 26.948 112.576 26.9747 112.509C27.0014 112.429 27.0147 112.329 27.0147 112.209L26.9947 111.929L26.7547 110.509H24.7147L24.9147 109.309H26.5547L25.2147 101.409L25.3947 100.449ZM36.712 101.529V100.449H36.892C37.572 100.462 38.0854 100.502 38.432 100.569C38.7787 100.636 39.092 100.769 39.372 100.969C39.3987 100.982 39.4254 101.002 39.452 101.029C39.492 101.056 39.532 101.082 39.572 101.109C39.9587 101.402 40.252 101.789 40.452 102.269C40.652 102.736 40.752 103.269 40.752 103.869C40.752 104.362 40.6787 104.829 40.532 105.269C40.3987 105.709 40.1987 106.062 39.932 106.329C39.932 106.342 39.9254 106.356 39.912 106.369C39.912 106.369 39.9054 106.369 39.892 106.369C39.7987 106.476 39.6987 106.576 39.592 106.669C39.4854 106.749 39.3587 106.822 39.212 106.889C39.1054 106.956 38.9787 107.022 38.832 107.089C38.6987 107.142 38.5454 107.202 38.372 107.269C38.412 107.282 38.452 107.296 38.492 107.309C38.532 107.309 38.572 107.309 38.612 107.309C38.8787 107.376 39.0987 107.442 39.272 107.509C39.4454 107.576 39.6054 107.662 39.752 107.769C39.7787 107.782 39.8054 107.802 39.832 107.829C39.8587 107.842 39.8854 107.862 39.912 107.889C40.1654 108.089 40.3587 108.342 40.492 108.649C40.6387 108.956 40.712 109.282 40.712 109.629V111.629C40.712 111.736 40.7187 111.816 40.732 111.869C40.7587 111.922 40.7987 111.949 40.852 111.949C40.8654 111.949 40.8787 111.949 40.892 111.949C40.9054 111.936 40.9187 111.929 40.932 111.929C40.9587 111.916 40.9787 111.896 40.992 111.869C41.0187 111.829 41.0454 111.782 41.072 111.729C41.1387 111.636 41.1987 111.562 41.252 111.509C41.3187 111.456 41.3787 111.429 41.432 111.429C41.4454 111.429 41.452 111.429 41.452 111.429C41.4654 111.429 41.472 111.429 41.472 111.429C41.552 111.456 41.6187 111.509 41.672 111.589C41.7387 111.669 41.7854 111.756 41.812 111.849C41.812 111.876 41.812 111.896 41.812 111.909C41.812 111.922 41.812 111.936 41.812 111.949C41.812 112.056 41.7854 112.182 41.732 112.329C41.692 112.476 41.632 112.622 41.552 112.769C41.472 112.929 41.372 113.082 41.252 113.229C41.1454 113.376 41.0254 113.509 40.892 113.629C40.7187 113.762 40.5254 113.862 40.312 113.929C40.0987 114.009 39.8587 114.049 39.592 114.049C38.9387 114.049 38.432 113.809 38.072 113.329C37.712 112.836 37.532 112.149 37.532 111.269V109.609C37.532 109.062 37.4654 108.656 37.332 108.389C37.212 108.122 37.0054 107.969 36.712 107.929V106.849C37.0187 106.809 37.232 106.689 37.352 106.489C37.472 106.289 37.532 105.969 37.532 105.529V102.929C37.532 102.529 37.472 102.236 37.352 102.049C37.2454 101.849 37.032 101.682 36.712 101.549V101.529ZM36.152 100.449V111.929C36.152 112.169 36.172 112.336 36.212 112.429C36.252 112.522 36.352 112.602 36.512 112.669C36.5387 112.669 36.5654 112.676 36.592 112.689C36.6187 112.702 36.652 112.716 36.692 112.729C36.812 112.769 36.8987 112.836 36.952 112.929C37.0187 113.009 37.052 113.116 37.052 113.249C37.052 113.436 36.9987 113.576 36.892 113.669C36.7854 113.749 36.6187 113.789 36.392 113.789H36.152H32.872H32.672C32.4987 113.789 32.3654 113.749 32.272 113.669C32.1787 113.576 32.132 113.442 32.132 113.269C32.132 113.149 32.1587 113.049 32.212 112.969C32.2654 112.876 32.3387 112.809 32.432 112.769C32.472 112.756 32.5054 112.742 32.532 112.729C32.572 112.702 32.6054 112.682 32.632 112.669C32.7387 112.602 32.8054 112.529 32.832 112.449C32.8587 112.356 32.872 112.216 32.872 112.029V102.229C32.872 102.042 32.8587 101.909 32.832 101.829C32.8054 101.749 32.7454 101.676 32.652 101.609C32.612 101.596 32.572 101.582 32.532 101.569C32.5054 101.542 32.472 101.522 32.432 101.509C32.3387 101.456 32.2654 101.389 32.212 101.309C32.1587 101.229 32.132 101.122 32.132 100.989C32.132 100.816 32.1787 100.689 32.272 100.609C32.3654 100.516 32.4987 100.469 32.672 100.469L32.872 100.449H36.152ZM45.4403 102.949L45.8203 104.969L44.5203 111.269C44.507 111.322 44.4936 111.376 44.4803 111.429C44.4803 111.469 44.4803 111.509 44.4803 111.549C44.467 111.589 44.4603 111.636 44.4603 111.689C44.4603 111.729 44.4603 111.769 44.4603 111.809C44.4603 111.996 44.5003 112.169 44.5803 112.329C44.6603 112.476 44.767 112.589 44.9003 112.669L45.1403 112.809C45.2203 112.876 45.2803 112.956 45.3203 113.049C45.3736 113.129 45.4003 113.222 45.4003 113.329C45.4003 113.476 45.3536 113.589 45.2603 113.669C45.167 113.749 45.0336 113.789 44.8603 113.789H43.0003C42.827 113.789 42.687 113.742 42.5803 113.649C42.4736 113.556 42.4203 113.429 42.4203 113.269C42.4203 113.162 42.4403 113.069 42.4803 112.989C42.5336 112.909 42.6203 112.836 42.7403 112.769C43.047 112.582 43.2736 112.369 43.4203 112.129C43.567 111.889 43.6936 111.516 43.8003 111.009L45.4403 102.949ZM45.9603 100.449H48.9003L50.9403 111.929C50.9403 111.969 50.9403 112.009 50.9403 112.049C50.9536 112.076 50.967 112.102 50.9803 112.129C51.0203 112.329 51.067 112.476 51.1203 112.569C51.1736 112.662 51.2536 112.736 51.3603 112.789C51.3736 112.802 51.387 112.816 51.4003 112.829C51.4136 112.829 51.427 112.829 51.4403 112.829C51.5336 112.896 51.6003 112.969 51.6403 113.049C51.6803 113.116 51.7003 113.209 51.7003 113.329C51.7003 113.476 51.647 113.589 51.5403 113.669C51.447 113.749 51.307 113.789 51.1203 113.789H47.4603C47.327 113.789 47.2136 113.749 47.1203 113.669C47.027 113.576 46.9803 113.449 46.9803 113.289C46.9803 113.209 46.987 113.142 47.0003 113.089C47.0136 113.036 47.0403 112.989 47.0803 112.949C47.107 112.922 47.1403 112.896 47.1803 112.869C47.2203 112.829 47.267 112.789 47.3203 112.749C47.3336 112.736 47.3403 112.729 47.3403 112.729C47.3536 112.716 47.367 112.709 47.3803 112.709C47.4603 112.642 47.5136 112.576 47.5403 112.509C47.567 112.429 47.5803 112.329 47.5803 112.209L47.5603 111.929L47.3203 110.509H45.2803L45.4803 109.309H47.1203L45.7803 101.409L45.9603 100.449ZM56.5377 100.449L57.9777 105.929L58.6177 102.969V106.209L56.9177 113.789H56.5377L53.6977 102.549C53.6843 102.509 53.671 102.469 53.6577 102.429C53.6443 102.389 53.6377 102.349 53.6377 102.309C53.571 102.082 53.4977 101.922 53.4177 101.829C53.3377 101.722 53.2177 101.649 53.0577 101.609C52.8977 101.569 52.7777 101.502 52.6977 101.409C52.6177 101.302 52.5777 101.169 52.5777 101.009C52.5777 100.836 52.6243 100.702 52.7177 100.609C52.811 100.516 52.9443 100.469 53.1177 100.469L56.5377 100.449ZM53.6977 104.949L54.4577 107.909V110.849C54.4577 111.302 54.4977 111.662 54.5777 111.929C54.671 112.196 54.8243 112.416 55.0377 112.589L55.2977 112.789C55.4043 112.882 55.4777 112.969 55.5177 113.049C55.5577 113.129 55.5777 113.222 55.5777 113.329C55.5777 113.489 55.531 113.609 55.4377 113.689C55.3577 113.756 55.2243 113.789 55.0377 113.789H53.1977C53.0243 113.789 52.8843 113.756 52.7777 113.689C52.6843 113.609 52.6377 113.482 52.6377 113.309C52.6377 113.242 52.6443 113.189 52.6577 113.149C52.671 113.096 52.6977 113.049 52.7377 113.009C52.751 112.996 52.771 112.982 52.7977 112.969C52.8243 112.942 52.851 112.916 52.8777 112.889C53.1577 112.689 53.3643 112.422 53.4977 112.089C53.631 111.756 53.6977 111.349 53.6977 110.869V104.949ZM59.2177 100.449H62.4977H62.6977C62.8843 100.476 63.0177 100.529 63.0977 100.609C63.191 100.689 63.2377 100.822 63.2377 101.009C63.2377 101.129 63.211 101.236 63.1577 101.329C63.1177 101.409 63.051 101.469 62.9577 101.509C62.9177 101.522 62.8777 101.542 62.8377 101.569C62.7977 101.582 62.7643 101.596 62.7377 101.609C62.631 101.676 62.5577 101.749 62.5177 101.829C62.491 101.909 62.4777 102.049 62.4777 102.249V112.009C62.4777 112.222 62.491 112.369 62.5177 112.449C62.5577 112.529 62.631 112.602 62.7377 112.669C62.7643 112.682 62.7977 112.702 62.8377 112.729C62.8777 112.742 62.9177 112.756 62.9577 112.769C63.051 112.809 63.1177 112.876 63.1577 112.969C63.211 113.049 63.2377 113.149 63.2377 113.269C63.2377 113.442 63.191 113.576 63.0977 113.669C63.0177 113.749 62.8843 113.789 62.6977 113.789H62.4977H59.2177H58.9577C58.7443 113.789 58.5843 113.749 58.4777 113.669C58.371 113.576 58.3177 113.436 58.3177 113.249C58.3177 113.116 58.3443 113.009 58.3977 112.929C58.4643 112.836 58.551 112.776 58.6577 112.749C58.6977 112.736 58.731 112.729 58.7577 112.729C58.7843 112.716 58.811 112.702 58.8377 112.689C59.011 112.622 59.1177 112.542 59.1577 112.449C59.1977 112.356 59.2177 112.189 59.2177 111.949V100.449ZM68.2159 100.189V101.309C67.9093 101.429 67.6693 101.602 67.4959 101.829C67.3359 102.056 67.2559 102.342 67.2559 102.689C67.2559 102.996 67.3093 103.269 67.4159 103.509C67.5359 103.736 67.7226 103.949 67.9759 104.149C68.0559 104.202 68.1559 104.276 68.2759 104.369C68.4093 104.449 68.6226 104.569 68.9159 104.729L69.5359 105.089C69.7226 105.209 69.8826 105.316 70.0159 105.409C70.1626 105.502 70.2959 105.589 70.4159 105.669C70.5093 105.749 70.5959 105.829 70.6759 105.909C70.7559 105.976 70.8359 106.056 70.9159 106.149C70.9426 106.176 70.9693 106.209 70.9959 106.249C71.0226 106.276 71.0493 106.309 71.0759 106.349C71.4359 106.776 71.6959 107.242 71.8559 107.749C72.0293 108.256 72.1159 108.822 72.1159 109.449C72.1159 110.742 71.7693 111.822 71.0759 112.689C70.3959 113.542 69.5159 113.996 68.4359 114.049V112.929C68.8493 112.809 69.1493 112.629 69.3359 112.389C69.5226 112.149 69.6159 111.829 69.6159 111.429C69.6159 111.176 69.5759 110.956 69.4959 110.769C69.4293 110.569 69.3093 110.382 69.1359 110.209C69.0159 110.089 68.8626 109.969 68.6759 109.849C68.4893 109.716 68.2693 109.576 68.0159 109.429C67.5493 109.162 67.1693 108.929 66.8759 108.729C66.5826 108.529 66.3426 108.342 66.1559 108.169C65.7026 107.729 65.3559 107.216 65.1159 106.629C64.8893 106.042 64.7759 105.382 64.7759 104.649C64.7759 103.356 65.0826 102.309 65.6959 101.509C66.3226 100.709 67.1626 100.276 68.2159 100.209V100.189ZM67.8359 112.929V114.049C67.6893 114.049 67.5426 114.029 67.3959 113.989C67.2493 113.949 67.1026 113.896 66.9559 113.829C66.8759 113.802 66.8026 113.776 66.7359 113.749C66.6693 113.709 66.5959 113.662 66.5159 113.609C66.3559 113.502 66.2359 113.436 66.1559 113.409C66.0893 113.369 66.0293 113.342 65.9759 113.329C65.9759 113.329 65.9693 113.329 65.9559 113.329C65.9426 113.329 65.9293 113.329 65.9159 113.329C65.8759 113.329 65.8359 113.336 65.7959 113.349C65.7693 113.349 65.7426 113.362 65.7159 113.389C65.6893 113.416 65.6559 113.456 65.6159 113.509C65.5759 113.562 65.5293 113.636 65.4759 113.729C65.4626 113.756 65.4426 113.776 65.4159 113.789C65.4026 113.816 65.3893 113.836 65.3759 113.849C65.3493 113.876 65.3226 113.896 65.2959 113.909C65.2693 113.922 65.2359 113.929 65.1959 113.929C65.0626 113.929 64.9559 113.856 64.8759 113.709C64.8093 113.562 64.7759 113.356 64.7759 113.089V109.529C64.7759 109.356 64.8159 109.209 64.8959 109.089C64.9759 108.956 65.0759 108.889 65.1959 108.889C65.3026 108.889 65.3826 108.936 65.4359 109.029C65.5026 109.109 65.5626 109.256 65.6159 109.469C65.7226 110.002 65.8626 110.489 66.0359 110.929C66.2226 111.369 66.4559 111.776 66.7359 112.149C66.8959 112.376 67.0626 112.549 67.2359 112.669C67.4093 112.789 67.6093 112.882 67.8359 112.949V112.929ZM68.8159 101.309V100.229C68.9226 100.256 69.0159 100.276 69.0959 100.289C69.1893 100.302 69.2759 100.322 69.3559 100.349C69.5026 100.389 69.6559 100.449 69.8159 100.529C69.9893 100.609 70.2093 100.722 70.4759 100.869L70.7159 100.929C70.7559 100.942 70.7959 100.936 70.8359 100.909C70.8759 100.882 70.9026 100.849 70.9159 100.809L71.0759 100.509C71.1159 100.442 71.1626 100.396 71.2159 100.369C71.2693 100.329 71.3226 100.309 71.3759 100.309C71.4959 100.309 71.5826 100.376 71.6359 100.509C71.7026 100.629 71.7359 100.822 71.7359 101.089V104.289C71.7359 104.489 71.6959 104.656 71.6159 104.789C71.5359 104.909 71.4359 104.969 71.3159 104.969C71.1959 104.969 71.0959 104.916 71.0159 104.809C70.9493 104.702 70.8959 104.522 70.8559 104.269C70.7493 103.536 70.5093 102.902 70.1359 102.369C69.7626 101.836 69.3226 101.489 68.8159 101.329V101.309ZM77.8334 113.789H74.5734H74.3734C74.1868 113.789 74.0468 113.749 73.9534 113.669C73.8601 113.576 73.8134 113.442 73.8134 113.269C73.8134 113.149 73.8401 113.049 73.8934 112.969C73.9468 112.876 74.0201 112.809 74.1134 112.769C74.1534 112.756 74.1934 112.742 74.2334 112.729C74.2734 112.702 74.3068 112.682 74.3334 112.669C74.4401 112.602 74.5068 112.529 74.5334 112.449C74.5601 112.369 74.5734 112.229 74.5734 112.029V102.229C74.5734 102.042 74.5601 101.909 74.5334 101.829C74.5068 101.749 74.4401 101.676 74.3334 101.609C74.3068 101.596 74.2734 101.582 74.2334 101.569C74.1934 101.542 74.1534 101.522 74.1134 101.509C74.0201 101.469 73.9468 101.409 73.8934 101.329C73.8401 101.236 73.8134 101.129 73.8134 101.009C73.8134 100.822 73.8601 100.689 73.9534 100.609C74.0601 100.516 74.2001 100.469 74.3734 100.469L74.5734 100.449H77.8334H78.0334C78.2201 100.476 78.3534 100.529 78.4334 100.609C78.5134 100.689 78.5534 100.816 78.5534 100.989C78.5534 101.122 78.5334 101.236 78.4934 101.329C78.4534 101.409 78.3801 101.469 78.2734 101.509L78.0534 101.589C77.9868 101.629 77.9334 101.702 77.8934 101.809C77.8534 101.916 77.8334 102.062 77.8334 102.249V112.009C77.8334 112.196 77.8534 112.349 77.8934 112.469C77.9334 112.576 77.9868 112.642 78.0534 112.669L78.2734 112.749C78.3801 112.802 78.4534 112.876 78.4934 112.969C78.5334 113.049 78.5534 113.156 78.5534 113.289C78.5534 113.462 78.5134 113.589 78.4334 113.669C78.3534 113.749 78.2201 113.789 78.0334 113.789H77.8334ZM78.4334 106.489H79.6134V102.229C79.6134 102.056 79.5934 101.916 79.5534 101.809C79.5268 101.702 79.4801 101.636 79.4134 101.609L79.1734 101.489C79.0801 101.462 79.0068 101.409 78.9534 101.329C78.9134 101.249 78.8934 101.142 78.8934 101.009C78.8934 100.822 78.9334 100.689 79.0134 100.609C79.1068 100.516 79.2401 100.469 79.4134 100.469L79.6134 100.449H82.8934H83.0934C83.2801 100.476 83.4134 100.529 83.4934 100.609C83.5868 100.689 83.6334 100.822 83.6334 101.009C83.6334 101.129 83.6068 101.236 83.5534 101.329C83.5134 101.409 83.4401 101.469 83.3334 101.509C83.2934 101.522 83.2534 101.542 83.2134 101.569C83.1868 101.582 83.1534 101.596 83.1134 101.609C83.0201 101.676 82.9601 101.749 82.9334 101.829C82.9068 101.909 82.8934 102.049 82.8934 102.249V112.009C82.8934 112.222 82.9001 112.369 82.9134 112.449C82.9401 112.529 83.0068 112.602 83.1134 112.669C83.1401 112.682 83.1734 112.702 83.2134 112.729C83.2534 112.742 83.2934 112.756 83.3334 112.769C83.4401 112.809 83.5134 112.876 83.5534 112.969C83.6068 113.049 83.6334 113.149 83.6334 113.269C83.6334 113.442 83.5868 113.576 83.4934 113.669C83.4134 113.749 83.2801 113.789 83.0934 113.789H82.8934H79.6134H79.4134C79.2401 113.789 79.1068 113.749 79.0134 113.669C78.9334 113.589 78.8934 113.462 78.8934 113.289C78.8934 113.169 78.9201 113.062 78.9734 112.969C79.0268 112.876 79.0934 112.809 79.1734 112.769L79.4134 112.649C79.4801 112.636 79.5268 112.576 79.5534 112.469C79.5934 112.349 79.6134 112.202 79.6134 112.029V107.569H78.4334V106.489ZM87.8216 102.949L88.2016 104.969L86.9016 111.269C86.8882 111.322 86.8749 111.376 86.8616 111.429C86.8616 111.469 86.8616 111.509 86.8616 111.549C86.8482 111.589 86.8416 111.636 86.8416 111.689C86.8416 111.729 86.8416 111.769 86.8416 111.809C86.8416 111.996 86.8816 112.169 86.9616 112.329C87.0416 112.476 87.1482 112.589 87.2816 112.669L87.5216 112.809C87.6016 112.876 87.6616 112.956 87.7016 113.049C87.7549 113.129 87.7816 113.222 87.7816 113.329C87.7816 113.476 87.7349 113.589 87.6416 113.669C87.5482 113.749 87.4149 113.789 87.2416 113.789H85.3816C85.2082 113.789 85.0682 113.742 84.9616 113.649C84.8549 113.556 84.8016 113.429 84.8016 113.269C84.8016 113.162 84.8216 113.069 84.8616 112.989C84.9149 112.909 85.0016 112.836 85.1216 112.769C85.4282 112.582 85.6549 112.369 85.8016 112.129C85.9482 111.889 86.0749 111.516 86.1816 111.009L87.8216 102.949ZM88.3416 100.449H91.2816L93.3216 111.929C93.3216 111.969 93.3216 112.009 93.3216 112.049C93.3349 112.076 93.3482 112.102 93.3616 112.129C93.4016 112.329 93.4482 112.476 93.5016 112.569C93.5549 112.662 93.6349 112.736 93.7416 112.789C93.7549 112.802 93.7682 112.816 93.7816 112.829C93.7949 112.829 93.8082 112.829 93.8216 112.829C93.9149 112.896 93.9816 112.969 94.0216 113.049C94.0616 113.116 94.0816 113.209 94.0816 113.329C94.0816 113.476 94.0282 113.589 93.9216 113.669C93.8282 113.749 93.6882 113.789 93.5016 113.789H89.8416C89.7082 113.789 89.5949 113.749 89.5016 113.669C89.4082 113.576 89.3616 113.449 89.3616 113.289C89.3616 113.209 89.3682 113.142 89.3816 113.089C89.3949 113.036 89.4216 112.989 89.4616 112.949C89.4882 112.922 89.5216 112.896 89.5616 112.869C89.6016 112.829 89.6482 112.789 89.7016 112.749C89.7149 112.736 89.7216 112.729 89.7216 112.729C89.7349 112.716 89.7482 112.709 89.7616 112.709C89.8416 112.642 89.8949 112.576 89.9216 112.509C89.9482 112.429 89.9616 112.329 89.9616 112.209L89.9416 111.929L89.7016 110.509H87.6616L87.8616 109.309H89.5016L88.1616 101.409L88.3416 100.449ZM99.0989 113.789H95.8189H95.6189C95.4456 113.789 95.3122 113.749 95.2189 113.669C95.1256 113.576 95.0789 113.442 95.0789 113.269C95.0789 113.149 95.1056 113.049 95.1589 112.969C95.2122 112.876 95.2856 112.809 95.3789 112.769C95.4189 112.756 95.4522 112.742 95.4789 112.729C95.5189 112.702 95.5589 112.682 95.5989 112.669C95.6922 112.602 95.7522 112.529 95.7789 112.449C95.8056 112.369 95.8189 112.229 95.8189 112.029V102.229C95.8189 102.042 95.8056 101.909 95.7789 101.829C95.7522 101.749 95.6922 101.676 95.5989 101.609C95.5589 101.596 95.5189 101.582 95.4789 101.569C95.4522 101.542 95.4189 101.522 95.3789 101.509C95.2856 101.469 95.2122 101.409 95.1589 101.329C95.1056 101.236 95.0789 101.129 95.0789 101.009C95.0789 100.822 95.1256 100.689 95.2189 100.609C95.3122 100.516 95.4456 100.469 95.6189 100.469L95.8189 100.449H99.0989H99.3389C99.5656 100.476 99.7322 100.536 99.8389 100.629C99.9456 100.709 99.9989 100.842 99.9989 101.029C99.9989 101.162 99.9656 101.276 99.8989 101.369C99.8456 101.449 99.7589 101.509 99.6389 101.549C99.5989 101.562 99.5656 101.576 99.5389 101.589C99.5122 101.602 99.4856 101.609 99.4589 101.609C99.2989 101.676 99.1989 101.756 99.1589 101.849C99.1189 101.942 99.0989 102.102 99.0989 102.329V113.789ZM99.6389 113.789V112.689C99.8389 112.662 99.9989 112.622 100.119 112.569C100.239 112.516 100.346 112.449 100.439 112.369C100.692 112.169 100.919 111.869 101.119 111.469C101.319 111.056 101.479 110.582 101.599 110.049C101.626 109.942 101.646 109.849 101.659 109.769C101.686 109.689 101.712 109.616 101.739 109.549C101.779 109.416 101.826 109.322 101.879 109.269C101.946 109.216 102.019 109.189 102.099 109.189C102.232 109.189 102.326 109.242 102.379 109.349C102.432 109.442 102.459 109.602 102.459 109.829V113.789H99.6389ZM105.887 102.949L106.267 104.969L104.967 111.269C104.954 111.322 104.941 111.376 104.927 111.429C104.927 111.469 104.927 111.509 104.927 111.549C104.914 111.589 104.907 111.636 104.907 111.689C104.907 111.729 104.907 111.769 104.907 111.809C104.907 111.996 104.947 112.169 105.027 112.329C105.107 112.476 105.214 112.589 105.347 112.669L105.587 112.809C105.667 112.876 105.727 112.956 105.767 113.049C105.821 113.129 105.847 113.222 105.847 113.329C105.847 113.476 105.801 113.589 105.707 113.669C105.614 113.749 105.481 113.789 105.307 113.789H103.447C103.274 113.789 103.134 113.742 103.027 113.649C102.921 113.556 102.867 113.429 102.867 113.269C102.867 113.162 102.887 113.069 102.927 112.989C102.981 112.909 103.067 112.836 103.187 112.769C103.494 112.582 103.721 112.369 103.867 112.129C104.014 111.889 104.141 111.516 104.247 111.009L105.887 102.949ZM106.407 100.449H109.347L111.387 111.929C111.387 111.969 111.387 112.009 111.387 112.049C111.401 112.076 111.414 112.102 111.427 112.129C111.467 112.329 111.514 112.476 111.567 112.569C111.621 112.662 111.701 112.736 111.807 112.789C111.821 112.802 111.834 112.816 111.847 112.829C111.861 112.829 111.874 112.829 111.887 112.829C111.981 112.896 112.047 112.969 112.087 113.049C112.127 113.116 112.147 113.209 112.147 113.329C112.147 113.476 112.094 113.589 111.987 113.669C111.894 113.749 111.754 113.789 111.567 113.789H107.907C107.774 113.789 107.661 113.749 107.567 113.669C107.474 113.576 107.427 113.449 107.427 113.289C107.427 113.209 107.434 113.142 107.447 113.089C107.461 113.036 107.487 112.989 107.527 112.949C107.554 112.922 107.587 112.896 107.627 112.869C107.667 112.829 107.714 112.789 107.767 112.749C107.781 112.736 107.787 112.729 107.787 112.729C107.801 112.716 107.814 112.709 107.827 112.709C107.907 112.642 107.961 112.576 107.987 112.509C108.014 112.429 108.027 112.329 108.027 112.209L108.007 111.929L107.767 110.509H105.727L105.927 109.309H107.567L106.227 101.409L106.407 100.449Z" fill="#B5962E"/>
<path d="M56.3064 0C57.999 0.739081 59.6373 1.61044 61.3093 2.3957C65.4042 4.28939 69.4876 6.20769 73.5597 8.15056C75.0078 8.83914 76.462 9.51426 77.9224 10.176C78.6089 10.4931 79.2826 10.8484 79.9804 11.1387L79.9718 25.0911C80.8355 24.8645 81.6604 24.5246 82.5171 24.2763L92.7421 21.3081C92.4801 21.7445 92.1483 22.159 91.8512 22.5726C91.083 23.6417 90.2801 24.6849 89.5103 25.7527L82.6571 35.1646C81.8977 36.2056 81.1191 37.2323 80.3743 38.2845C80.3067 38.38 80.2681 38.4299 80.163 38.4867C80.1569 38.49 80.083 38.5278 80.0747 38.5339C80.0106 38.5818 80.0049 38.6119 79.9895 38.6857C79.8595 39.3124 79.89 40.0272 79.8318 40.671C79.7165 41.9453 79.4927 43.2544 79.159 44.4898C77.3634 51.1364 72.5462 55.2475 67.0567 58.9203C64.9772 60.3094 62.8543 61.6281 60.6881 62.8764C59.2718 63.6946 57.8302 64.4666 56.4132 65.2835L56.3176 65.3266C56.0368 65.1881 55.7711 65.0011 55.4939 64.8506C54.5263 64.3333 53.5676 63.7999 52.6178 63.2504C49.9602 61.7381 47.3628 60.1652 44.8373 58.437C43.045 57.2105 41.2589 55.9201 39.7016 54.3977C36.2257 50.9995 33.6612 46.7383 32.9483 41.86C32.7793 40.7038 32.7536 39.5131 32.7384 38.3463L32.1649 38.2932C31.0821 36.6584 29.9164 35.0947 28.7787 33.5003C27.1552 31.1934 25.5142 28.8992 23.8559 26.6176L21.2415 23.0394C20.8222 22.4559 20.3861 21.8781 20 21.2721C22.8239 22.1306 25.6797 22.879 28.5178 23.6887C29.8955 24.0817 31.2531 24.5713 32.6397 24.9271C32.6679 24.0892 32.643 23.2412 32.6381 22.4027L32.6185 17.7628C32.6275 16.3102 32.628 14.8575 32.6199 13.4048C32.6158 12.6963 32.6407 11.9715 32.5872 11.2655C33.6859 10.7864 34.7543 10.2284 35.8378 9.71486L43.1784 6.23589L51.2825 2.3668L54.4324 0.871491C55.0565 0.580011 55.6936 0.314968 56.3064 0Z" fill="#4B5320"/>
<path d="M66.6977 34.3465C67.1676 34.2073 67.7099 34.179 68.1956 34.1086L71.6081 33.628L79.6835 32.4856C80.5902 32.3648 81.4866 32.1993 82.3975 32.1077C82.1316 32.4983 81.8498 32.8767 81.5518 33.243C79.4853 33.5704 77.3771 33.7623 75.2974 33.998C72.4349 34.3383 69.5695 34.6518 66.7012 34.9385L66.6977 34.3465Z" fill="#FEFEFE"/>
<path d="M30.1123 31.9688C31.4309 32.247 32.8054 32.3903 34.141 32.5805L41.8327 33.6583L44.745 34.0796C45.0125 34.1181 45.2877 34.1156 45.5526 34.161C45.6768 34.1823 45.7855 34.2115 45.8883 34.2854C45.9236 34.3783 45.9202 34.4433 45.9172 34.5408C45.9085 34.6561 45.9184 34.7222 45.8512 34.8179C45.7523 34.8542 45.6648 34.8748 45.5586 34.8713C45.2849 34.8623 45.0084 34.7932 44.7331 34.7727C43.2274 34.6607 41.7169 34.4779 40.2189 34.2884C37.1454 33.8998 34.06 33.4936 30.9744 33.221C30.6442 32.8596 30.378 32.3821 30.1123 31.9688Z" fill="#FEFEFE"/>
<path d="M25.0865 24.9833C27.9781 25.8462 30.8812 26.7048 33.7866 27.5192L45.9423 30.8932C45.9266 31.0749 45.9305 31.2605 45.9272 31.443L32.8478 28.235L29.0462 27.2969C28.1573 27.0782 27.2686 26.8335 26.362 26.7009C25.9189 26.1722 25.4261 25.5847 25.0865 24.9833Z" fill="#FEFEFE"/>
<path d="M66.7032 30.9699C70.065 30.0389 73.42 29.0835 76.7681 28.1038L87.6913 24.9458C87.3418 25.4953 86.9881 26.0266 86.5752 26.5311C85.5319 26.8496 84.4633 27.0807 83.4069 27.3492C81.468 27.8562 79.5254 28.3483 77.579 28.8256C73.96 29.7427 70.3557 30.7614 66.712 31.5749L66.7032 30.9699Z" fill="#FEFEFE"/>
<path d="M66.7012 34.9385C69.5695 34.6518 72.4349 34.3383 75.2974 33.998C77.3771 33.7623 79.4854 33.5704 81.5518 33.243C80.9699 34.0989 80.3147 34.9054 79.7276 35.7577C77.2279 35.7773 74.7288 35.8255 72.2302 35.9021C70.3897 35.9584 68.5279 36.0439 66.6876 35.9989C66.6803 35.4701 66.6166 34.8659 66.6978 34.3465L66.7012 34.9385Z" fill="#D9C356"/>
<path d="M30.9744 33.2211C34.06 33.4937 37.1454 33.8999 40.2189 34.2886C41.7169 34.4781 43.2275 34.6608 44.7331 34.7728C45.0084 34.7933 45.2849 34.8624 45.5586 34.8714C45.6648 34.8749 45.7523 34.8543 45.8512 34.818C45.9184 34.7223 45.9085 34.6562 45.9172 34.541C45.9468 34.9828 45.9152 35.4473 45.9109 35.8913C43.9236 35.864 41.9362 35.8898 39.9488 35.8699C37.5809 35.8461 35.1895 35.7806 32.8242 35.8689C32.187 35.0013 31.5872 34.106 30.9744 33.2211Z" fill="#D9C356"/>
<path d="M26.362 26.7008C27.2686 26.8334 28.1573 27.0781 29.0462 27.2969L32.8478 28.2349L45.9273 31.4429C45.9305 31.2605 45.9266 31.0749 45.9423 30.8931C46.0123 31.4154 45.9336 32.2787 45.9329 32.84C44.1464 32.4468 42.3156 32.1776 40.5143 31.8515L33.0162 30.4602C31.5274 30.1923 30.0184 30.0053 28.5447 29.6564C27.7745 28.7175 27.0576 27.697 26.362 26.7008Z" fill="#D9C356"/>
<path d="M86.5752 26.5311C86.1877 27.0649 85.7739 27.5791 85.386 28.1133C84.9786 28.6742 84.5822 29.3098 84.1038 29.81C81.2106 30.4026 78.2843 30.8527 75.3749 31.358C72.4939 31.8583 69.6234 32.4134 66.7369 32.8832C66.7318 32.4474 66.7327 32.0105 66.7119 31.575C70.3557 30.7615 73.96 29.7428 77.5789 28.8257C79.5253 28.3484 81.468 27.8563 83.4068 27.3493C84.4633 27.0807 85.5319 26.8497 86.5752 26.5311Z" fill="#D9C356"/>
<path d="M53.7348 25.275C54.6165 22.6165 55.3502 19.9033 56.2535 17.2528L56.3053 17.2169L56.3059 17.1847L56.3284 17.1777L56.3869 17.2894C56.305 17.8333 56.3364 18.4003 56.3396 18.9486C56.3413 19.5169 56.3383 20.0852 56.3306 20.6534C56.3044 23.7275 56.3521 26.8005 56.3467 29.8742C56.3457 30.369 56.431 31.924 56.3162 32.2868C55.3302 33.2434 54.2837 34.1503 53.2616 35.0684L49.1581 38.7398C49.6894 36.9846 50.3757 35.2799 51.0008 33.5562C51.4189 32.4032 51.7688 31.2041 52.234 30.0714C51.2134 29.3414 50.198 28.5991 49.1608 27.8933C47.9208 27.0496 46.6371 26.2411 45.487 25.273L53.7348 25.275Z" fill="#D9C356"/>
<path d="M56.3869 17.2895C56.8549 18.4758 57.1989 19.7384 57.5934 20.9531C58.0588 22.3862 58.582 23.8228 58.9797 25.2744L67.4819 25.282C66.1393 26.3057 64.7007 27.1976 63.3024 28.1406C62.3465 28.7854 61.3362 29.5607 60.3562 30.137C60.6482 30.9499 60.9883 31.7455 61.3027 32.5499L62.5352 35.7729C62.9465 36.8264 63.3819 37.873 63.7786 38.9319C62.9214 38.1104 62.0168 37.3665 61.1186 36.5926C60.0134 35.6361 58.9242 34.6616 57.8509 33.6689C57.3418 33.2049 56.81 32.7681 56.3162 32.2869C56.4309 31.9241 56.3457 30.3691 56.3466 29.8743C56.3521 26.8006 56.3044 23.7276 56.3305 20.6536C56.3383 20.0853 56.3413 19.5171 56.3396 18.9487C56.3364 18.4004 56.305 17.8334 56.3869 17.2895Z" fill="#B5962E"/>
<path d="M56.2915 4.02491C56.4144 4.02404 56.5543 4.1015 56.6654 4.15328L66.5593 8.85579C68.9591 9.95419 71.3495 11.0728 73.7305 12.2115C74.6726 12.6592 75.6229 13.0895 76.5537 13.561C76.566 17.6109 76.5574 21.6608 76.528 25.7106C75.3257 26.1446 74.1261 26.5861 72.9293 27.0351L72.93 15.6677C69.8238 14.3038 66.7776 12.8033 63.7154 11.3444C61.3299 10.2079 58.9189 9.12756 56.5501 7.95562C56.5219 7.94069 56.4814 7.91791 56.4521 7.9082C56.4479 7.90679 56.3527 7.8848 56.3408 7.88621C56.2085 7.90256 54.3909 8.84865 54.0913 8.99118L44.018 13.8151C42.6066 14.4887 41.2048 15.2209 39.7745 15.8496C39.7167 19.537 39.7997 23.2244 39.7675 26.9115C38.6009 26.5148 37.4048 26.1897 36.225 25.8332L36.2283 13.5488C39.9965 11.797 43.7478 10.0093 47.482 8.18561C50.4116 6.78557 53.3751 5.45363 56.2915 4.02491Z" fill="#F0DDAB"/>
<path d="M56.3021 34.3013C56.5865 34.3862 56.9535 34.8261 57.1745 35.0345L57.2037 56.7283C60.5035 54.3281 64.0751 52.3109 67.2367 49.7166C69.6086 47.7701 71.6336 45.4065 72.4531 42.3797C72.7822 41.1645 72.934 39.8981 73.0588 38.648C74.1623 38.623 75.2659 38.6145 76.3696 38.6226C76.2038 40.4234 76.0303 42.2397 75.509 43.9786C74.3022 48.0042 71.3634 51.4049 68.1109 53.9478C66.4247 55.2663 64.5858 56.4266 62.7908 57.5891C60.6965 58.9454 58.5897 60.3318 56.3935 61.5162C55.8509 61.2452 55.3296 60.9087 54.8106 60.5939C53.8396 60.0054 52.8772 59.4031 51.9232 58.787C48.606 56.6644 45.1985 54.5382 42.309 51.8369C39.3566 49.0769 37.1133 45.5069 36.4622 41.4679C36.3124 40.5387 36.2832 39.5934 36.2487 38.6542L39.7601 38.6603C39.7845 39.6293 39.8885 40.5713 40.1003 41.5174C40.7733 44.5231 42.6385 47.3389 44.8949 49.396C46.285 50.6632 47.8784 51.7552 49.4352 52.8031C51.4209 54.1398 53.4558 55.393 55.4755 56.6766L55.4612 35.042L56.3021 34.3013Z" fill="#F0DDAB"/>
</svg>
