<svg width="196" height="70" viewBox="0 0 196 70" fill="none" xmlns="http://www.w3.org/2000/svg">
<path d="M40.9082 2.76459C42.522 3.48111 44.0509 4.29191 45.6895 5.06146L45.6924 5.06244C49.7854 6.95526 53.8674 8.87241 57.9375 10.8144V10.8154C59.3883 11.5052 60.8456 12.1808 62.3086 12.8437C62.8628 13.0998 63.469 13.4097 64.0723 13.6777L64.0645 27.3036V27.9521L64.6914 27.788C65.1429 27.6696 65.5806 27.5222 66.002 27.3779C66.4283 27.2318 66.8351 27.0896 67.2491 26.9697L76.1084 24.3964C76.0851 24.4285 76.0617 24.4613 76.0381 24.4941C75.6569 25.0246 75.2662 25.5489 74.8731 26.0771C74.4806 26.6043 74.0848 27.1353 73.6973 27.6728L66.8457 37.0829C66.0945 38.1126 65.3053 39.1541 64.5586 40.2089C64.5421 40.2323 64.5326 40.2455 64.5254 40.2548L64.5244 40.2558C64.5228 40.2567 64.5211 40.2584 64.5186 40.2597L64.5108 40.2636C64.5027 40.2678 64.4917 40.2734 64.4805 40.2792C64.4696 40.2849 64.4561 40.2914 64.4444 40.2978C64.4388 40.3008 64.4315 40.3051 64.4239 40.3095C64.42 40.3118 64.414 40.3161 64.4073 40.3203C64.4031 40.3228 64.3874 40.3321 64.3692 40.3456L64.3682 40.3466C64.3003 40.3974 64.2177 40.4729 64.1592 40.5898C64.1359 40.6365 64.1198 40.6844 64.1094 40.7226L64.0928 40.7968C64.0194 41.1506 63.9937 41.5189 63.9776 41.8613C63.9692 42.0393 63.9631 42.2067 63.9561 42.3681L63.9268 42.8388C63.8139 44.0869 63.595 45.3673 63.2696 46.5722C61.6329 52.6305 57.4141 56.5456 52.3867 60.0263L51.3711 60.7177C49.5598 61.9277 47.7153 63.0838 45.8379 64.1865L45.0313 64.6562C44.3272 65.0629 43.6155 65.4587 42.9004 65.8564C42.2393 66.2241 41.5746 66.5937 40.9141 66.9726C40.8637 66.9432 40.8114 66.912 40.7569 66.8788C40.6269 66.7998 40.4776 66.7067 40.3252 66.624L40.3223 66.623L38.8848 65.8388C38.4079 65.5735 37.9334 65.3035 37.461 65.0302L37.458 65.0283L36.4668 64.4599C34.1627 63.1266 31.9094 61.7403 29.7129 60.2372C27.9244 59.0134 26.168 57.7431 24.6436 56.2529C21.2275 52.913 18.7299 48.7471 18.0362 44.0009C17.8726 42.8815 17.8463 41.7211 17.8311 40.5527L17.8252 40.1025L17.377 40.0615L17.0401 40.0292C16.5368 39.2765 16.0162 38.5368 15.4912 37.8036L13.7784 35.4228C12.154 33.1147 10.5128 30.8188 8.85355 28.5361L8.85257 28.5351L6.23831 24.957H6.23734C6.0939 24.7574 5.95191 24.5617 5.81155 24.3681C8.19655 25.0649 10.6036 25.7066 12.9737 26.3828C13.6538 26.5768 14.3283 26.7943 15.0176 27.0117C15.7034 27.2279 16.401 27.4424 17.1084 27.624L17.711 27.7792L17.7325 27.1572C17.7611 26.3062 17.7354 25.435 17.7305 24.6122L17.711 19.9785C17.72 18.5241 17.721 17.0696 17.7129 15.6152C17.7096 15.0428 17.7235 14.4116 17.6963 13.7919C18.6948 13.3416 19.6885 12.833 20.6446 12.3798L27.9854 8.90033H27.9864L36.0899 5.03021L39.2393 3.53607L39.2383 3.5351C39.7646 3.28936 40.3503 3.03942 40.9082 2.76459Z" fill="black" stroke="black"/>
<path d="M41.2998 1.29681C42.9943 2.03673 44.7301 2.95299 46.3272 3.70306H46.3262C50.4226 5.59746 54.5076 7.51633 58.5811 9.4599C60.0235 10.1458 61.4731 10.8183 62.9278 11.4775L62.9346 11.4814C63.6941 11.8322 64.2739 12.1444 64.9571 12.4286L65.5733 12.6845V13.3525L65.5645 25.9413C65.7551 25.8759 65.9533 25.8077 66.1563 25.7402L66.8321 25.5283L77.0557 22.5605L79.5039 21.8495L78.1924 24.0361C77.9026 24.5189 77.5105 25.0147 77.2559 25.3691C76.8662 25.9114 76.4685 26.4465 76.0762 26.9736C75.6823 27.5027 75.2937 28.0243 74.9141 28.5507L74.9112 28.5546L68.0586 37.9658L68.0576 37.9667C67.4757 38.7645 66.904 39.5254 66.3418 40.2978L65.7832 41.0751C65.7536 41.117 65.6831 41.2182 65.586 41.3163C65.5639 41.3386 65.5402 41.3588 65.5176 41.3788C65.4978 41.5438 65.4853 41.7263 65.4756 41.9316C65.4615 42.2316 65.4525 42.6235 65.4209 42.9736C65.3009 44.3002 65.067 45.6676 64.7168 46.9638C62.8215 53.979 57.7354 58.2638 52.2051 61.9638V61.9648C50.1073 63.3662 47.9656 64.6967 45.7803 65.956L45.7793 65.955C45.0635 66.3685 44.343 66.7704 43.6299 67.1669C42.9142 67.565 42.2064 67.9584 41.5059 68.3622L41.4619 68.3876L41.417 68.4081L41.3213 68.4511L40.8916 68.6454L40.4678 68.4365C40.2842 68.3459 40.1148 68.2436 39.9776 68.1601C39.829 68.0697 39.7204 68.0025 39.6094 67.9423V67.9413C38.6342 67.4198 37.6674 66.8829 36.71 66.329V66.3281C34.0396 64.8083 31.4186 63.2228 28.8653 61.4755C27.0652 60.2438 25.2189 58.9119 23.5957 57.3251C20.0008 53.8106 17.3033 49.3596 16.5518 44.2177C16.4176 43.2995 16.3688 42.3686 16.3467 41.4716L16.1885 41.4579L15.9239 41.0585C14.8539 39.4429 13.7115 37.9109 12.5576 36.2939L12.5537 36.289C10.9338 33.9871 9.2964 31.6975 7.64163 29.4208L5.0264 25.8417L5.02249 25.8359C4.62182 25.2782 4.15511 24.6597 3.74905 24.0224L2.29593 21.7411L4.88382 22.5283C7.69969 23.3844 10.516 24.121 13.3848 24.9394C14.0907 25.1408 14.793 25.3679 15.4688 25.581C15.7291 25.6631 15.9874 25.7417 16.2432 25.8193C16.2397 25.4297 16.2329 25.0326 16.2305 24.621V24.6201L16.211 19.9794V19.9697C16.22 18.5209 16.221 17.0718 16.2129 15.623C16.2085 14.8597 16.2326 14.2133 16.1826 13.5536L16.1289 12.8456L16.7803 12.5615C17.8649 12.0885 18.8667 11.5624 20.002 11.0244L27.3428 7.54486L35.4444 3.67767L35.4463 3.6767L38.5967 2.1806L38.6016 2.17865C39.2819 1.86088 39.8476 1.62893 40.4424 1.32318L40.8643 1.10638L41.2998 1.29681Z" fill="#4B5320" stroke="#D9C356" stroke-width="2"/>
<path d="M51.2905 36.5593C51.7603 36.4201 52.3027 36.3919 52.7884 36.3214L56.2009 35.8408L64.2763 34.6984C65.183 34.5776 66.0794 34.4122 66.9902 34.3206C66.7244 34.7111 66.4426 35.0895 66.1446 35.4558C64.0781 35.7832 61.9699 35.9751 59.8901 36.2108C57.0277 36.5511 54.1623 36.8646 51.294 37.1513L51.2905 36.5593Z" fill="#FEFEFE"/>
<path d="M14.705 34.1816C16.0236 34.4599 17.3982 34.6031 18.7338 34.7933L26.4254 35.8711L29.3378 36.2925C29.6053 36.3309 29.8805 36.3284 30.1454 36.3738C30.2696 36.3951 30.3782 36.4244 30.4811 36.4982C30.5164 36.5911 30.513 36.6562 30.5099 36.7537C30.5012 36.8689 30.5112 36.935 30.4439 37.0307C30.3451 37.067 30.2576 37.0876 30.1514 37.0841C29.8777 37.0751 29.6011 37.006 29.3259 36.9855C27.8202 36.8735 26.3097 36.6907 24.8117 36.5013C21.7382 36.1126 18.6528 35.7064 15.5671 35.4338C15.237 35.0724 14.9708 34.595 14.705 34.1816Z" fill="#FEFEFE"/>
<path d="M9.67935 27.1961C12.5709 28.059 15.474 28.9176 18.3794 29.732L30.5351 33.106C30.5194 33.2878 30.5233 33.4733 30.52 33.6558L17.4406 30.4478L13.639 29.5098C12.7501 29.291 11.8614 29.0463 10.9548 28.9137C10.5117 28.385 10.0189 27.7976 9.67935 27.1961Z" fill="#FEFEFE"/>
<path d="M51.296 33.1828C54.6578 32.2517 58.0128 31.2964 61.361 30.3166L72.2842 27.1586C71.9347 27.7081 71.5809 28.2394 71.168 28.7439C70.1247 29.0625 69.0561 29.2935 67.9997 29.562C66.0608 30.069 64.1182 30.5611 62.1718 31.0384C58.5529 31.9556 54.9486 32.9742 51.3048 33.7877L51.296 33.1828Z" fill="#FEFEFE"/>
<path d="M51.294 37.1513C54.1623 36.8646 57.0277 36.5511 59.8902 36.2108C61.9699 35.9751 64.0782 35.7832 66.1446 35.4558C65.5626 36.3117 64.9075 37.1182 64.3204 37.9705C61.8207 37.9902 59.3216 38.0383 56.823 38.1149C54.9825 38.1713 53.1206 38.2568 51.2804 38.2118C51.2731 37.6829 51.2094 37.0787 51.2906 36.5593L51.294 37.1513Z" fill="#D9C356"/>
<path d="M15.5672 35.434C18.6528 35.7065 21.7382 36.1127 24.8117 36.5014C26.3097 36.6909 27.8203 36.8736 29.3259 36.9857C29.6012 37.0062 29.8777 37.0752 30.1514 37.0842C30.2576 37.0878 30.3451 37.0671 30.444 37.0308C30.5112 36.9351 30.5013 36.869 30.51 36.7538C30.5396 37.1956 30.508 37.6601 30.5037 38.1041C28.5164 38.0768 26.529 38.1026 24.5416 38.0827C22.1737 38.059 19.7823 37.9934 17.417 38.0817C16.7798 37.2142 16.18 36.3188 15.5672 35.434Z" fill="#D9C356"/>
<path d="M10.9548 28.9136C11.8614 29.0462 12.7501 29.291 13.639 29.5097L17.4406 30.4477L30.5201 33.6557C30.5234 33.4733 30.5194 33.2877 30.5351 33.106C30.6051 33.6283 30.5264 34.4915 30.5257 35.0528C28.7393 34.6596 26.9084 34.3905 25.1072 34.0643L17.6091 32.673C16.1202 32.4051 14.6112 32.2182 13.1376 31.8692C12.3673 30.9303 11.6504 29.9099 10.9548 28.9136Z" fill="#D9C356"/>
<path d="M71.168 28.744C70.7805 29.2778 70.3667 29.7919 69.9788 30.3261C69.5714 30.8871 69.175 31.5226 68.6966 32.0228C65.8034 32.6154 62.8771 33.0656 59.9677 33.5708C57.0867 34.0711 54.2162 34.6262 51.3297 35.0961C51.3246 34.6602 51.3255 34.2233 51.3047 33.7878C54.9485 32.9743 58.5528 31.9557 62.1717 31.0385C64.1181 30.5612 66.0607 30.0691 67.9996 29.5621C69.0561 29.2936 70.1247 29.0625 71.168 28.744Z" fill="#D9C356"/>
<path d="M38.3276 27.4878C39.2093 24.8293 39.943 22.1161 40.8463 19.4657L40.8981 19.4298L40.8987 19.3975L40.9212 19.3906L40.9797 19.5023C40.8978 20.0462 40.9292 20.6131 40.9324 21.1615C40.9341 21.7297 40.9311 22.298 40.9234 22.8663C40.8972 25.9403 40.9449 29.0133 40.9395 32.0871C40.9385 32.5818 41.0238 34.1368 40.909 34.4997C39.923 35.4562 38.8765 36.3631 37.8544 37.2812L33.7509 40.9527C34.2822 39.1974 34.9685 37.4928 35.5936 35.769C36.0117 34.6161 36.3616 33.4169 36.8268 32.2842C35.8062 31.5542 34.7908 30.8119 33.7536 30.1062C32.5136 29.2625 31.2298 28.4539 30.0798 27.4859L38.3276 27.4878Z" fill="#D9C356"/>
<path d="M40.9797 19.5023C41.4477 20.6886 41.7917 21.9512 42.1862 23.166C42.6516 24.599 43.1748 26.0356 43.5725 27.4872L52.0747 27.4948C50.7321 28.5185 49.2934 29.4105 47.8952 30.3535C46.9393 30.9982 45.9289 31.7735 44.949 32.3498C45.241 33.1627 45.581 33.9583 45.8955 34.7627L47.128 37.9857C47.5393 39.0392 47.9747 40.0859 48.3714 41.1448C47.5142 40.3232 46.6096 39.5793 45.7114 38.8055C44.6061 37.849 43.5169 36.8744 42.4437 35.8818C41.9346 35.4177 41.4028 34.9809 40.909 34.4998C41.0237 34.1369 40.9385 32.5819 40.9394 32.0872C40.9449 29.0134 40.8971 25.9404 40.9233 22.8664C40.9311 22.2981 40.9341 21.7299 40.9323 21.1616C40.9292 20.6132 40.8978 20.0462 40.9797 19.5023Z" fill="#B5962E"/>
<path d="M40.8843 6.23774C41.0072 6.23687 41.1471 6.31433 41.2582 6.36611L51.1521 11.0686C53.5519 12.167 55.9423 13.2856 58.3233 14.4243C59.2654 14.8721 60.2157 15.3023 61.1465 15.7738C61.1588 19.8237 61.1502 23.8736 61.1208 27.9235C59.9185 28.3574 58.719 28.7989 57.5221 29.248L57.5228 17.8805C54.4166 16.5166 51.3704 15.0161 48.3082 13.5573C45.9227 12.4208 43.5117 11.3404 41.1429 10.1685C41.1147 10.1535 41.0742 10.1307 41.0449 10.121C41.0407 10.1196 40.9455 10.0976 40.9336 10.099C40.8013 10.1154 38.9837 11.0615 38.6841 11.204L28.6108 16.0279C27.1994 16.7015 25.7976 17.4338 24.3673 18.0624C24.3095 21.7498 24.3925 25.4373 24.3603 29.1244C23.1937 28.7277 21.9976 28.4025 20.8178 28.0461L20.8211 15.7616C24.5893 14.0099 28.3406 12.2221 32.0748 10.3984C35.0044 8.9984 37.9679 7.66646 40.8843 6.23774Z" fill="#F0DDAB"/>
<path d="M40.8949 36.5141C41.1793 36.599 41.5463 37.0389 41.7673 37.2474L41.7965 58.9411C45.0963 56.5409 48.6679 54.5238 51.8294 51.9294C54.2014 49.9829 56.2264 47.6193 57.0459 44.5925C57.3749 43.3773 57.5267 42.111 57.6516 40.8609C58.7551 40.8358 59.8587 40.8273 60.9624 40.8355C60.7966 42.6362 60.6231 44.4525 60.1018 46.1915C58.895 50.217 55.9562 53.6177 52.7037 56.1606C51.0175 57.4791 49.1786 58.6394 47.3836 59.8019C45.2893 61.1582 43.1825 62.5446 40.9863 63.729C40.4437 63.458 39.9224 63.1216 39.4034 62.8067C38.4324 62.2182 37.4699 61.6159 36.516 60.9999C33.1988 58.8773 29.7913 56.751 26.9018 54.0497C23.9494 51.2897 21.706 47.7197 21.055 43.6807C20.9052 42.7515 20.876 41.8062 20.8415 40.8671L24.3529 40.8732C24.3772 41.8421 24.4813 42.7841 24.6931 43.7303C25.3661 46.736 27.2313 49.5517 29.4877 51.6088C30.8778 52.876 32.4712 53.968 34.0279 55.0159C36.0137 56.3526 38.0485 57.6059 40.0683 58.8894L40.054 37.2549L40.8949 36.5141Z" fill="#F0DDAB"/>
<path d="M91.663 29.548L94.0536 17.5012C94.0745 17.397 94.0849 17.2876 94.0849 17.173C94.0849 16.7564 93.8192 16.423 93.288 16.173C92.9547 16.0064 92.788 15.8449 92.788 15.6887C92.788 15.6157 92.7932 15.5428 92.8036 15.4699V15.2199C92.8036 14.7512 92.8245 14.4595 92.8661 14.3449C92.9182 14.2199 93.0484 14.1574 93.2567 14.1574H97.1317C97.3088 14.1574 97.413 14.2095 97.4442 14.3137C97.4859 14.4074 97.5067 14.6626 97.5067 15.0793C97.5067 15.5689 97.4963 15.871 97.4755 15.9855C97.4547 16.1001 97.3817 16.1939 97.2567 16.2668C96.9442 16.4751 96.7463 16.6574 96.663 16.8137C96.5797 16.9595 96.4755 17.3397 96.3505 17.9543L92.288 38.2512L92.038 39.4855C92.0172 39.6001 91.9078 39.6574 91.7099 39.6574H88.5692C88.4338 39.6574 88.3297 39.5949 88.2567 39.4699C88.1838 39.3449 88.0797 38.9387 87.9442 38.2512L83.8661 17.5012C83.7724 16.9803 83.5224 16.6001 83.1161 16.3605C82.9078 16.2355 82.7776 16.1418 82.7255 16.0793C82.6838 16.0064 82.663 15.8605 82.663 15.6418C82.663 15.5689 82.6682 15.496 82.6786 15.423C82.689 15.3085 82.6942 15.1991 82.6942 15.0949C82.6942 15.022 82.689 14.9543 82.6786 14.8918V14.673C82.6786 14.3293 82.8036 14.1574 83.0536 14.1574H90.1474C90.387 14.1574 90.5067 14.3762 90.5067 14.8137C90.5067 14.8241 90.4963 15.1262 90.4755 15.7199C90.4547 15.8553 90.3453 15.9699 90.1474 16.0637C89.689 16.2824 89.4599 16.6314 89.4599 17.1105C89.4599 17.2251 89.4755 17.3553 89.5067 17.5012L91.663 29.548ZM106.42 14.8293C106.482 14.7772 106.659 14.5428 106.951 14.1262C107.139 13.8553 107.389 13.7199 107.701 13.7199C107.774 13.7199 108.066 13.7564 108.576 13.8293C108.68 13.9335 108.758 14.1522 108.81 14.4855L109.654 19.7824C109.696 20.0637 109.717 20.2303 109.717 20.2824C109.717 20.4803 109.659 20.6105 109.545 20.673C109.441 20.7355 109.154 20.7668 108.685 20.7668C108.154 20.7668 107.81 20.6991 107.654 20.5637C107.498 20.4282 107.201 19.8657 106.764 18.8762C105.837 16.7824 105.008 15.7355 104.279 15.7355C103.758 15.7355 103.498 16.1001 103.498 16.8293C103.498 17.7355 104.284 19.5168 105.857 22.173C107.659 25.2355 108.831 27.4543 109.373 28.8293C109.925 30.1939 110.201 31.7251 110.201 33.423C110.201 35.4335 109.727 36.9751 108.779 38.048C107.831 39.121 106.764 39.6574 105.576 39.6574C104.826 39.6574 104.102 39.4439 103.404 39.0168C103.133 38.8501 102.92 38.7668 102.764 38.7668C102.628 38.7668 102.519 38.8657 102.435 39.0637C102.269 39.4595 101.863 39.6574 101.217 39.6574C100.967 39.6574 100.795 39.6157 100.701 39.5324C100.618 39.4595 100.555 39.2564 100.514 38.923L99.7324 33.7199C99.6282 33.0532 99.5761 32.6991 99.5761 32.6574C99.5761 32.3553 99.8522 32.2043 100.404 32.2043C101.154 32.2043 101.597 32.3032 101.732 32.5012C101.868 32.6991 102.06 33.1522 102.31 33.8605C103.227 36.3918 104.149 37.6574 105.076 37.6574C105.42 37.6574 105.696 37.5324 105.904 37.2824C106.123 37.0324 106.232 36.7199 106.232 36.3449C106.232 35.6887 105.993 34.9126 105.514 34.0168C105.045 33.1105 104.467 32.1053 103.779 31.0012C102.133 28.3553 100.967 26.246 100.279 24.673C99.6022 23.0897 99.2636 21.4751 99.2636 19.8293C99.2636 17.9751 99.6699 16.496 100.482 15.3918C101.295 14.2876 102.29 13.7355 103.467 13.7355C104.279 13.7355 105.264 14.1001 106.42 14.8293ZM123.192 21.2512L127.239 36.173C127.375 36.6835 127.635 37.0324 128.02 37.2199C128.27 37.3449 128.395 37.6262 128.395 38.0637C128.395 38.1157 128.38 38.4282 128.349 39.0012C128.317 39.2512 128.099 39.3762 127.692 39.3762H121.474C121.244 39.3762 121.093 39.3345 121.02 39.2512C120.948 39.1678 120.911 38.9387 120.911 38.5637C120.911 38.5012 120.922 38.2303 120.942 37.7512C120.974 37.5637 121.099 37.4282 121.317 37.3449C121.651 37.2303 121.817 37.0376 121.817 36.7668C121.817 36.6939 121.807 36.6053 121.786 36.5012L119.599 28.6262L119.067 29.798V36.173C119.067 36.7043 119.302 37.1105 119.77 37.3918C119.968 37.5064 120.067 37.7668 120.067 38.173C120.067 38.6522 120.026 38.9751 119.942 39.1418C119.859 39.298 119.656 39.3762 119.333 39.3762H112.786C112.547 39.3762 112.38 39.3293 112.286 39.2355C112.192 39.1314 112.145 38.8501 112.145 38.3918C112.145 37.9335 112.182 37.647 112.255 37.5324C112.328 37.4074 112.468 37.298 112.677 37.2043C113.062 37.048 113.255 36.7668 113.255 36.3605V17.5949C113.255 17.1262 113.067 16.7772 112.692 16.548C112.442 16.3918 112.291 16.2668 112.239 16.173C112.187 16.0689 112.161 15.8605 112.161 15.548C112.161 14.8397 112.187 14.4335 112.239 14.3293C112.291 14.2147 112.442 14.1574 112.692 14.1574H119.817C120.151 14.1574 120.317 14.2928 120.317 14.5637C120.317 15.4074 120.302 15.897 120.27 16.0324C120.239 16.1574 120.088 16.298 119.817 16.4543C119.317 16.7147 119.067 17.048 119.067 17.4543V25.4699L122.474 17.7355C122.661 17.3085 122.755 16.9855 122.755 16.7668C122.755 16.6314 122.63 16.4699 122.38 16.2824C122.109 16.0949 121.942 15.9335 121.88 15.798C121.828 15.6626 121.802 15.3189 121.802 14.7668C121.802 14.3605 121.953 14.1574 122.255 14.1574H126.395C126.635 14.1574 126.781 14.2043 126.833 14.298C126.885 14.3918 126.911 14.6626 126.911 15.1105C126.911 15.5897 126.875 15.8814 126.802 15.9855C126.739 16.0897 126.531 16.2147 126.177 16.3605C125.906 16.4647 125.734 16.548 125.661 16.6105C125.588 16.673 125.5 16.8085 125.395 17.0168L123.192 21.2512ZM149.269 13.7355H150.081C150.269 13.7355 150.409 13.8085 150.503 13.9543C150.597 14.0897 150.664 14.4647 150.706 15.0793L151.065 20.1105C151.076 20.2147 151.081 20.3137 151.081 20.4074C151.081 20.772 151.019 21.0272 150.894 21.173C150.769 21.3189 150.519 21.3918 150.144 21.3918C149.685 21.3918 149.368 21.272 149.19 21.0324C149.013 20.7928 148.842 20.2251 148.675 19.3293C148.248 17.0585 147.638 15.923 146.847 15.923C146.19 15.923 145.862 16.7407 145.862 18.3762V35.9543C145.862 37.121 146.206 37.7043 146.894 37.7043C147.769 37.7043 148.258 36.7303 148.362 34.7824C148.394 34.2199 148.503 33.8293 148.69 33.6105C148.878 33.3918 149.263 33.2824 149.847 33.2824C150.284 33.2824 150.586 33.3657 150.753 33.5324C150.93 33.6887 151.019 34.0012 151.019 34.4699C151.019 35.9595 150.571 37.1991 149.675 38.1887C148.779 39.1678 147.664 39.6574 146.331 39.6574C145.039 39.6574 143.904 39.246 142.925 38.423C141.946 37.6001 141.097 36.1835 140.378 34.173C139.67 32.1522 139.315 29.5689 139.315 26.423C139.315 23.4543 139.612 21.0845 140.206 19.3137C140.81 17.5324 141.576 16.1574 142.503 15.1887C143.44 14.2199 144.529 13.7355 145.769 13.7355C146.519 13.7355 147.17 13.9387 147.722 14.3449C147.93 14.4907 148.086 14.5637 148.19 14.5637C148.315 14.5637 148.493 14.4178 148.722 14.1262C148.92 13.8657 149.102 13.7355 149.269 13.7355ZM159.979 16.0793V25.0012H161.041C161.333 25.0012 161.546 24.9387 161.682 24.8137C161.817 24.6887 161.921 24.4178 161.994 24.0012C162.119 23.2616 162.218 22.8189 162.291 22.673C162.374 22.5272 162.499 22.4543 162.666 22.4543C163.489 22.4543 163.953 22.4907 164.057 22.5637C164.171 22.6262 164.229 22.8866 164.229 23.3449V28.548C164.229 28.871 164.177 29.0845 164.072 29.1887C163.968 29.2824 163.645 29.3293 163.104 29.3293C162.749 29.3293 162.51 29.2668 162.385 29.1418C162.27 29.0064 162.156 28.6366 162.041 28.0324C161.927 27.4803 161.812 27.1418 161.697 27.0168C161.593 26.8918 161.427 26.8293 161.197 26.8293H159.979V37.5949H160.807C161.317 37.5949 161.666 37.4543 161.854 37.173C162.052 36.8814 162.364 36.0532 162.791 34.6887C162.968 34.1157 163.15 33.7407 163.338 33.5637C163.525 33.3866 163.854 33.298 164.322 33.298C164.968 33.298 165.291 33.5064 165.291 33.923C165.291 34.048 165.27 34.2303 165.229 34.4699L164.65 38.0168C164.546 38.6626 164.458 39.0532 164.385 39.1887C164.322 39.3137 164.114 39.3762 163.76 39.3762H153.338C153.078 39.3762 152.911 39.3189 152.838 39.2043C152.765 39.0793 152.729 38.7303 152.729 38.1574C152.729 37.7928 152.916 37.5272 153.291 37.3605C153.864 37.121 154.15 36.7928 154.15 36.3762V16.8918C154.14 16.6939 153.906 16.496 153.447 16.298C153.135 16.1626 152.947 16.0324 152.885 15.9074C152.833 15.7824 152.807 15.4803 152.807 15.0012C152.807 14.5949 152.838 14.3553 152.9 14.2824C152.963 14.1991 153.145 14.1574 153.447 14.1574H163.416C163.666 14.1574 163.848 14.1991 163.963 14.2824C164.078 14.3657 164.166 14.5637 164.229 14.8762L165.025 18.9074C165.067 19.1157 165.088 19.2564 165.088 19.3293C165.088 19.6105 164.838 19.7512 164.338 19.7512C163.775 19.7512 163.4 19.6887 163.213 19.5637C163.025 19.4282 162.843 19.1001 162.666 18.5793C162.343 17.6418 162.062 16.9907 161.822 16.6262C161.593 16.2616 161.333 16.0793 161.041 16.0793H159.979ZM174.22 37.6105H175.11C175.569 37.6105 175.907 37.4282 176.126 37.0637C176.345 36.6991 176.631 35.8553 176.985 34.5324C177.11 34.022 177.262 33.7147 177.439 33.6105C177.616 33.496 177.918 33.4387 178.345 33.4387C178.814 33.4387 179.116 33.4803 179.251 33.5637C179.387 33.6366 179.454 33.7772 179.454 33.9855C179.454 34.1314 179.428 34.3657 179.376 34.6887L178.829 38.423C178.767 38.8085 178.683 39.0637 178.579 39.1887C178.485 39.3137 178.288 39.3762 177.985 39.3762H167.704C167.267 39.3762 167.048 39.1053 167.048 38.5637C167.048 38.147 167.074 37.8814 167.126 37.7668C167.189 37.6418 167.314 37.548 167.501 37.4855C168.095 37.298 168.392 36.7512 168.392 35.8449V17.2824C168.392 16.897 168.204 16.621 167.829 16.4543C167.506 16.3189 167.308 16.1678 167.235 16.0012C167.163 15.8345 167.126 15.5585 167.126 15.173C167.126 14.7147 167.157 14.4335 167.22 14.3293C167.282 14.2147 167.449 14.1574 167.72 14.1574H174.923C175.194 14.1574 175.376 14.2251 175.47 14.3605C175.574 14.4855 175.626 14.8345 175.626 15.4074C175.626 15.7512 175.59 15.9855 175.517 16.1105C175.454 16.2251 175.282 16.3293 175.001 16.423C174.48 16.6001 174.22 16.9439 174.22 17.4543V37.6105ZM188.18 37.6105H189.07C189.529 37.6105 189.867 37.4282 190.086 37.0637C190.305 36.6991 190.591 35.8553 190.945 34.5324C191.07 34.022 191.222 33.7147 191.399 33.6105C191.576 33.496 191.878 33.4387 192.305 33.4387C192.774 33.4387 193.076 33.4803 193.211 33.5637C193.347 33.6366 193.414 33.7772 193.414 33.9855C193.414 34.1314 193.388 34.3657 193.336 34.6887L192.789 38.423C192.727 38.8085 192.643 39.0637 192.539 39.1887C192.445 39.3137 192.248 39.3762 191.945 39.3762H181.664C181.227 39.3762 181.008 39.1053 181.008 38.5637C181.008 38.147 181.034 37.8814 181.086 37.7668C181.149 37.6418 181.274 37.548 181.461 37.4855C182.055 37.298 182.352 36.7512 182.352 35.8449V17.2824C182.352 16.897 182.164 16.621 181.789 16.4543C181.466 16.3189 181.268 16.1678 181.195 16.0012C181.123 15.8345 181.086 15.5585 181.086 15.173C181.086 14.7147 181.117 14.4335 181.18 14.3293C181.242 14.2147 181.409 14.1574 181.68 14.1574H188.883C189.154 14.1574 189.336 14.2251 189.43 14.3605C189.534 14.4855 189.586 14.8345 189.586 15.4074C189.586 15.7512 189.55 15.9855 189.477 16.1105C189.414 16.2251 189.242 16.3293 188.961 16.423C188.44 16.6001 188.18 16.9439 188.18 17.4543V37.6105Z" fill="#4B5320"/>
<path d="M86.9549 46.0362V59.3762H83.6749H83.4749C83.3015 59.3762 83.1682 59.3362 83.0749 59.2562C82.9815 59.1628 82.9349 59.0295 82.9349 58.8562C82.9349 58.7362 82.9615 58.6362 83.0149 58.5562C83.0682 58.4628 83.1415 58.3962 83.2349 58.3562C83.2749 58.3428 83.3082 58.3295 83.3349 58.3162C83.3749 58.2895 83.4149 58.2695 83.4549 58.2562C83.5482 58.1895 83.6082 58.1162 83.6349 58.0362C83.6615 57.9562 83.6749 57.8162 83.6749 57.6162V47.8162C83.6749 47.6295 83.6615 47.4962 83.6349 47.4162C83.6082 47.3362 83.5482 47.2628 83.4549 47.1962C83.4149 47.1828 83.3749 47.1695 83.3349 47.1562C83.3082 47.1295 83.2749 47.1095 83.2349 47.0962C83.1415 47.0562 83.0682 46.9962 83.0149 46.9162C82.9615 46.8228 82.9349 46.7162 82.9349 46.5962C82.9349 46.4095 82.9815 46.2762 83.0749 46.1962C83.1682 46.1028 83.3015 46.0562 83.4749 46.0562L83.6749 46.0362H86.9549ZM87.5549 47.1362V46.0362C87.8482 46.0495 88.0949 46.0762 88.2949 46.1162C88.5082 46.1562 88.7149 46.2228 88.9149 46.3162C88.9949 46.3562 89.0749 46.4028 89.1549 46.4562C89.2349 46.4962 89.3215 46.5495 89.4149 46.6162C90.1749 47.1495 90.7549 47.9362 91.1549 48.9762C91.5549 50.0162 91.7549 51.2495 91.7549 52.6762C91.7549 54.1162 91.5415 55.3828 91.1149 56.4762C90.6882 57.5562 90.0815 58.3695 89.2949 58.9162C89.2149 58.9695 89.1415 59.0162 89.0749 59.0562C89.0082 59.0962 88.9415 59.1362 88.8749 59.1762C88.7015 59.2562 88.5149 59.3095 88.3149 59.3362C88.1149 59.3628 87.8615 59.3762 87.5549 59.3762V58.3162C87.9015 58.2228 88.1282 58.0695 88.2349 57.8562C88.3415 57.6295 88.3949 57.2162 88.3949 56.6162V48.8762C88.3949 48.3295 88.3282 47.9228 88.1949 47.6562C88.0749 47.3895 87.8615 47.2228 87.5549 47.1562V47.1362ZM97.2214 59.3762H93.9614H93.7614C93.5748 59.3762 93.4348 59.3362 93.3414 59.2562C93.2481 59.1628 93.2014 59.0295 93.2014 58.8562C93.2014 58.7362 93.2281 58.6362 93.2814 58.5562C93.3348 58.4628 93.4081 58.3962 93.5014 58.3562C93.5414 58.3428 93.5814 58.3295 93.6214 58.3162C93.6614 58.2895 93.6948 58.2695 93.7214 58.2562C93.8281 58.1895 93.8948 58.1162 93.9214 58.0362C93.9481 57.9562 93.9614 57.8162 93.9614 57.6162V47.8162C93.9614 47.6295 93.9481 47.4962 93.9214 47.4162C93.8948 47.3362 93.8281 47.2628 93.7214 47.1962C93.6948 47.1828 93.6614 47.1695 93.6214 47.1562C93.5814 47.1295 93.5414 47.1095 93.5014 47.0962C93.4081 47.0562 93.3348 46.9962 93.2814 46.9162C93.2281 46.8228 93.2014 46.7162 93.2014 46.5962C93.2014 46.4095 93.2481 46.2762 93.3414 46.1962C93.4481 46.1028 93.5881 46.0562 93.7614 46.0562L93.9614 46.0362H97.2214H97.4214C97.6081 46.0628 97.7414 46.1162 97.8214 46.1962C97.9014 46.2762 97.9414 46.4028 97.9414 46.5762C97.9414 46.7095 97.9214 46.8228 97.8814 46.9162C97.8414 46.9962 97.7681 47.0562 97.6614 47.0962L97.4414 47.1762C97.3748 47.2162 97.3214 47.2895 97.2814 47.3962C97.2414 47.5028 97.2214 47.6495 97.2214 47.8362V57.5962C97.2214 57.7828 97.2414 57.9362 97.2814 58.0562C97.3214 58.1628 97.3748 58.2295 97.4414 58.2562L97.6614 58.3362C97.7681 58.3895 97.8414 58.4628 97.8814 58.5562C97.9214 58.6362 97.9414 58.7428 97.9414 58.8762C97.9414 59.0495 97.9014 59.1762 97.8214 59.2562C97.7414 59.3362 97.6081 59.3762 97.4214 59.3762H97.2214ZM97.8214 52.0762H99.0014V47.8162C99.0014 47.6428 98.9814 47.5028 98.9414 47.3962C98.9148 47.2895 98.8681 47.2228 98.8014 47.1962L98.5614 47.0762C98.4681 47.0495 98.3948 46.9962 98.3414 46.9162C98.3014 46.8362 98.2814 46.7295 98.2814 46.5962C98.2814 46.4095 98.3214 46.2762 98.4014 46.1962C98.4948 46.1028 98.6281 46.0562 98.8014 46.0562L99.0014 46.0362H102.281H102.481C102.668 46.0628 102.801 46.1162 102.881 46.1962C102.975 46.2762 103.021 46.4095 103.021 46.5962C103.021 46.7162 102.995 46.8228 102.941 46.9162C102.901 46.9962 102.828 47.0562 102.721 47.0962C102.681 47.1095 102.641 47.1295 102.601 47.1562C102.575 47.1695 102.541 47.1828 102.501 47.1962C102.408 47.2628 102.348 47.3362 102.321 47.4162C102.295 47.4962 102.281 47.6362 102.281 47.8362V57.5962C102.281 57.8095 102.288 57.9562 102.301 58.0362C102.328 58.1162 102.395 58.1895 102.501 58.2562C102.528 58.2695 102.561 58.2895 102.601 58.3162C102.641 58.3295 102.681 58.3428 102.721 58.3562C102.828 58.3962 102.901 58.4628 102.941 58.5562C102.995 58.6362 103.021 58.7362 103.021 58.8562C103.021 59.0295 102.975 59.1628 102.881 59.2562C102.801 59.3362 102.668 59.3762 102.481 59.3762H102.281H99.0014H98.8014C98.6281 59.3762 98.4948 59.3362 98.4014 59.2562C98.3214 59.1762 98.2814 59.0495 98.2814 58.8762C98.2814 58.7562 98.3081 58.6495 98.3614 58.5562C98.4148 58.4628 98.4814 58.3962 98.5614 58.3562L98.8014 58.2362C98.8681 58.2228 98.9148 58.1628 98.9414 58.0562C98.9814 57.9362 99.0014 57.7895 99.0014 57.6162V53.1562H97.8214V52.0762ZM107.21 48.5362L107.59 50.5562L106.29 56.8562C106.276 56.9095 106.263 56.9628 106.25 57.0162C106.25 57.0562 106.25 57.0962 106.25 57.1362C106.236 57.1762 106.23 57.2228 106.23 57.2762C106.23 57.3162 106.23 57.3562 106.23 57.3962C106.23 57.5828 106.27 57.7562 106.35 57.9162C106.43 58.0628 106.536 58.1762 106.67 58.2562L106.91 58.3962C106.99 58.4628 107.05 58.5428 107.09 58.6362C107.143 58.7162 107.17 58.8095 107.17 58.9162C107.17 59.0628 107.123 59.1762 107.03 59.2562C106.936 59.3362 106.803 59.3762 106.63 59.3762H104.77C104.596 59.3762 104.456 59.3295 104.35 59.2362C104.243 59.1428 104.19 59.0162 104.19 58.8562C104.19 58.7495 104.21 58.6562 104.25 58.5762C104.303 58.4962 104.39 58.4228 104.51 58.3562C104.816 58.1695 105.043 57.9562 105.19 57.7162C105.336 57.4762 105.463 57.1028 105.57 56.5962L107.21 48.5362ZM107.73 46.0362H110.67L112.71 57.5162C112.71 57.5562 112.71 57.5962 112.71 57.6362C112.723 57.6628 112.736 57.6895 112.75 57.7162C112.79 57.9162 112.836 58.0628 112.89 58.1562C112.943 58.2495 113.023 58.3228 113.13 58.3762C113.143 58.3895 113.156 58.4028 113.17 58.4162C113.183 58.4162 113.196 58.4162 113.21 58.4162C113.303 58.4828 113.37 58.5562 113.41 58.6362C113.45 58.7028 113.47 58.7962 113.47 58.9162C113.47 59.0628 113.416 59.1762 113.31 59.2562C113.216 59.3362 113.076 59.3762 112.89 59.3762H109.23C109.096 59.3762 108.983 59.3362 108.89 59.2562C108.796 59.1628 108.75 59.0362 108.75 58.8762C108.75 58.7962 108.756 58.7295 108.77 58.6762C108.783 58.6228 108.81 58.5762 108.85 58.5362C108.876 58.5095 108.91 58.4828 108.95 58.4562C108.99 58.4162 109.036 58.3762 109.09 58.3362C109.103 58.3228 109.11 58.3162 109.11 58.3162C109.123 58.3028 109.136 58.2962 109.15 58.2962C109.23 58.2295 109.283 58.1628 109.31 58.0962C109.336 58.0162 109.35 57.9162 109.35 57.7962L109.33 57.5162L109.09 56.0962H107.05L107.25 54.8962H108.89L107.55 46.9962L107.73 46.0362ZM119.047 47.1162V46.0362H119.227C119.907 46.0495 120.42 46.0895 120.767 46.1562C121.114 46.2228 121.427 46.3562 121.707 46.5562C121.734 46.5695 121.76 46.5895 121.787 46.6162C121.827 46.6428 121.867 46.6695 121.907 46.6962C122.294 46.9895 122.587 47.3762 122.787 47.8562C122.987 48.3228 123.087 48.8562 123.087 49.4562C123.087 49.9495 123.014 50.4162 122.867 50.8562C122.734 51.2962 122.534 51.6495 122.267 51.9162C122.267 51.9295 122.26 51.9428 122.247 51.9562C122.247 51.9562 122.24 51.9562 122.227 51.9562C122.134 52.0628 122.034 52.1628 121.927 52.2562C121.82 52.3362 121.694 52.4095 121.547 52.4762C121.44 52.5428 121.314 52.6095 121.167 52.6762C121.034 52.7295 120.88 52.7895 120.707 52.8562C120.747 52.8695 120.787 52.8828 120.827 52.8962C120.867 52.8962 120.907 52.8962 120.947 52.8962C121.214 52.9628 121.434 53.0295 121.607 53.0962C121.78 53.1628 121.94 53.2495 122.087 53.3562C122.114 53.3695 122.14 53.3895 122.167 53.4162C122.194 53.4295 122.22 53.4495 122.247 53.4762C122.5 53.6762 122.694 53.9295 122.827 54.2362C122.974 54.5428 123.047 54.8695 123.047 55.2162V57.2162C123.047 57.3228 123.054 57.4028 123.067 57.4562C123.094 57.5095 123.134 57.5362 123.187 57.5362C123.2 57.5362 123.214 57.5362 123.227 57.5362C123.24 57.5228 123.254 57.5162 123.267 57.5162C123.294 57.5028 123.314 57.4828 123.327 57.4562C123.354 57.4162 123.38 57.3695 123.407 57.3162C123.474 57.2228 123.534 57.1495 123.587 57.0962C123.654 57.0428 123.714 57.0162 123.767 57.0162C123.78 57.0162 123.787 57.0162 123.787 57.0162C123.8 57.0162 123.807 57.0162 123.807 57.0162C123.887 57.0428 123.954 57.0962 124.007 57.1762C124.074 57.2562 124.12 57.3428 124.147 57.4362C124.147 57.4628 124.147 57.4828 124.147 57.4962C124.147 57.5095 124.147 57.5228 124.147 57.5362C124.147 57.6428 124.12 57.7695 124.067 57.9162C124.027 58.0628 123.967 58.2095 123.887 58.3562C123.807 58.5162 123.707 58.6695 123.587 58.8162C123.48 58.9628 123.36 59.0962 123.227 59.2162C123.054 59.3495 122.86 59.4495 122.647 59.5162C122.434 59.5962 122.194 59.6362 121.927 59.6362C121.274 59.6362 120.767 59.3962 120.407 58.9162C120.047 58.4228 119.867 57.7362 119.867 56.8562V55.1962C119.867 54.6495 119.8 54.2428 119.667 53.9762C119.547 53.7095 119.34 53.5562 119.047 53.5162V52.4362C119.354 52.3962 119.567 52.2762 119.687 52.0762C119.807 51.8762 119.867 51.5562 119.867 51.1162V48.5162C119.867 48.1162 119.807 47.8228 119.687 47.6362C119.58 47.4362 119.367 47.2695 119.047 47.1362V47.1162ZM118.487 46.0362V57.5162C118.487 57.7562 118.507 57.9228 118.547 58.0162C118.587 58.1095 118.687 58.1895 118.847 58.2562C118.874 58.2562 118.9 58.2628 118.927 58.2762C118.954 58.2895 118.987 58.3028 119.027 58.3162C119.147 58.3562 119.234 58.4228 119.287 58.5162C119.354 58.5962 119.387 58.7028 119.387 58.8362C119.387 59.0228 119.334 59.1628 119.227 59.2562C119.12 59.3362 118.954 59.3762 118.727 59.3762H118.487H115.207H115.007C114.834 59.3762 114.7 59.3362 114.607 59.2562C114.514 59.1628 114.467 59.0295 114.467 58.8562C114.467 58.7362 114.494 58.6362 114.547 58.5562C114.6 58.4628 114.674 58.3962 114.767 58.3562C114.807 58.3428 114.84 58.3295 114.867 58.3162C114.907 58.2895 114.94 58.2695 114.967 58.2562C115.074 58.1895 115.14 58.1162 115.167 58.0362C115.194 57.9428 115.207 57.8028 115.207 57.6162V47.8162C115.207 47.6295 115.194 47.4962 115.167 47.4162C115.14 47.3362 115.08 47.2628 114.987 47.1962C114.947 47.1828 114.907 47.1695 114.867 47.1562C114.84 47.1295 114.807 47.1095 114.767 47.0962C114.674 47.0428 114.6 46.9762 114.547 46.8962C114.494 46.8162 114.467 46.7095 114.467 46.5762C114.467 46.4028 114.514 46.2762 114.607 46.1962C114.7 46.1028 114.834 46.0562 115.007 46.0562L115.207 46.0362H118.487ZM127.775 48.5362L128.155 50.5562L126.855 56.8562C126.842 56.9095 126.829 56.9628 126.815 57.0162C126.815 57.0562 126.815 57.0962 126.815 57.1362C126.802 57.1762 126.795 57.2228 126.795 57.2762C126.795 57.3162 126.795 57.3562 126.795 57.3962C126.795 57.5828 126.835 57.7562 126.915 57.9162C126.995 58.0628 127.102 58.1762 127.235 58.2562L127.475 58.3962C127.555 58.4628 127.615 58.5428 127.655 58.6362C127.709 58.7162 127.735 58.8095 127.735 58.9162C127.735 59.0628 127.689 59.1762 127.595 59.2562C127.502 59.3362 127.369 59.3762 127.195 59.3762H125.335C125.162 59.3762 125.022 59.3295 124.915 59.2362C124.809 59.1428 124.755 59.0162 124.755 58.8562C124.755 58.7495 124.775 58.6562 124.815 58.5762C124.869 58.4962 124.955 58.4228 125.075 58.3562C125.382 58.1695 125.609 57.9562 125.755 57.7162C125.902 57.4762 126.029 57.1028 126.135 56.5962L127.775 48.5362ZM128.295 46.0362H131.235L133.275 57.5162C133.275 57.5562 133.275 57.5962 133.275 57.6362C133.289 57.6628 133.302 57.6895 133.315 57.7162C133.355 57.9162 133.402 58.0628 133.455 58.1562C133.509 58.2495 133.589 58.3228 133.695 58.3762C133.709 58.3895 133.722 58.4028 133.735 58.4162C133.749 58.4162 133.762 58.4162 133.775 58.4162C133.869 58.4828 133.935 58.5562 133.975 58.6362C134.015 58.7028 134.035 58.7962 134.035 58.9162C134.035 59.0628 133.982 59.1762 133.875 59.2562C133.782 59.3362 133.642 59.3762 133.455 59.3762H129.795C129.662 59.3762 129.549 59.3362 129.455 59.2562C129.362 59.1628 129.315 59.0362 129.315 58.8762C129.315 58.7962 129.322 58.7295 129.335 58.6762C129.349 58.6228 129.375 58.5762 129.415 58.5362C129.442 58.5095 129.475 58.4828 129.515 58.4562C129.555 58.4162 129.602 58.3762 129.655 58.3362C129.669 58.3228 129.675 58.3162 129.675 58.3162C129.689 58.3028 129.702 58.2962 129.715 58.2962C129.795 58.2295 129.849 58.1628 129.875 58.0962C129.902 58.0162 129.915 57.9162 129.915 57.7962L129.895 57.5162L129.655 56.0962H127.615L127.815 54.8962H129.455L128.115 46.9962L128.295 46.0362ZM138.873 46.0362L140.313 51.5162L140.953 48.5562V51.7962L139.253 59.3762H138.873L136.033 48.1362C136.019 48.0962 136.006 48.0562 135.993 48.0162C135.979 47.9762 135.973 47.9362 135.973 47.8962C135.906 47.6695 135.833 47.5095 135.753 47.4162C135.673 47.3095 135.553 47.2362 135.393 47.1962C135.233 47.1562 135.113 47.0895 135.033 46.9962C134.953 46.8895 134.913 46.7562 134.913 46.5962C134.913 46.4228 134.959 46.2895 135.053 46.1962C135.146 46.1028 135.279 46.0562 135.453 46.0562L138.873 46.0362ZM136.033 50.5362L136.793 53.4962V56.4362C136.793 56.8895 136.833 57.2495 136.913 57.5162C137.006 57.7828 137.159 58.0028 137.373 58.1762L137.633 58.3762C137.739 58.4695 137.813 58.5562 137.853 58.6362C137.893 58.7162 137.913 58.8095 137.913 58.9162C137.913 59.0762 137.866 59.1962 137.773 59.2762C137.693 59.3428 137.559 59.3762 137.373 59.3762H135.533C135.359 59.3762 135.219 59.3428 135.113 59.2762C135.019 59.1962 134.973 59.0695 134.973 58.8962C134.973 58.8295 134.979 58.7762 134.993 58.7362C135.006 58.6828 135.033 58.6362 135.073 58.5962C135.086 58.5828 135.106 58.5695 135.133 58.5562C135.159 58.5295 135.186 58.5028 135.213 58.4762C135.493 58.2762 135.699 58.0095 135.833 57.6762C135.966 57.3428 136.033 56.9362 136.033 56.4562V50.5362ZM141.553 46.0362H144.833H145.033C145.219 46.0628 145.353 46.1162 145.433 46.1962C145.526 46.2762 145.573 46.4095 145.573 46.5962C145.573 46.7162 145.546 46.8228 145.493 46.9162C145.453 46.9962 145.386 47.0562 145.293 47.0962C145.253 47.1095 145.213 47.1295 145.173 47.1562C145.133 47.1695 145.099 47.1828 145.073 47.1962C144.966 47.2628 144.893 47.3362 144.853 47.4162C144.826 47.4962 144.813 47.6362 144.813 47.8362V57.5962C144.813 57.8095 144.826 57.9562 144.853 58.0362C144.893 58.1162 144.966 58.1895 145.073 58.2562C145.099 58.2695 145.133 58.2895 145.173 58.3162C145.213 58.3295 145.253 58.3428 145.293 58.3562C145.386 58.3962 145.453 58.4628 145.493 58.5562C145.546 58.6362 145.573 58.7362 145.573 58.8562C145.573 59.0295 145.526 59.1628 145.433 59.2562C145.353 59.3362 145.219 59.3762 145.033 59.3762H144.833H141.553H141.293C141.079 59.3762 140.919 59.3362 140.813 59.2562C140.706 59.1628 140.653 59.0228 140.653 58.8362C140.653 58.7028 140.679 58.5962 140.733 58.5162C140.799 58.4228 140.886 58.3628 140.993 58.3362C141.033 58.3228 141.066 58.3162 141.093 58.3162C141.119 58.3028 141.146 58.2895 141.173 58.2762C141.346 58.2095 141.453 58.1295 141.493 58.0362C141.533 57.9428 141.553 57.7762 141.553 57.5362V46.0362ZM150.551 45.7762V46.8962C150.244 47.0162 150.004 47.1895 149.831 47.4162C149.671 47.6428 149.591 47.9295 149.591 48.2762C149.591 48.5828 149.644 48.8562 149.751 49.0962C149.871 49.3228 150.057 49.5362 150.311 49.7362C150.391 49.7895 150.491 49.8628 150.611 49.9562C150.744 50.0362 150.957 50.1562 151.251 50.3162L151.871 50.6762C152.057 50.7962 152.217 50.9028 152.351 50.9962C152.497 51.0895 152.631 51.1762 152.751 51.2562C152.844 51.3362 152.931 51.4162 153.011 51.4962C153.091 51.5628 153.171 51.6428 153.251 51.7362C153.277 51.7628 153.304 51.7962 153.331 51.8362C153.357 51.8628 153.384 51.8962 153.411 51.9362C153.771 52.3628 154.031 52.8295 154.191 53.3362C154.364 53.8428 154.451 54.4095 154.451 55.0362C154.451 56.3295 154.104 57.4095 153.411 58.2762C152.731 59.1295 151.851 59.5828 150.771 59.6362V58.5162C151.184 58.3962 151.484 58.2162 151.671 57.9762C151.857 57.7362 151.951 57.4162 151.951 57.0162C151.951 56.7628 151.911 56.5428 151.831 56.3562C151.764 56.1562 151.644 55.9695 151.471 55.7962C151.351 55.6762 151.197 55.5562 151.011 55.4362C150.824 55.3028 150.604 55.1628 150.351 55.0162C149.884 54.7495 149.504 54.5162 149.211 54.3162C148.917 54.1162 148.677 53.9295 148.491 53.7562C148.037 53.3162 147.691 52.8028 147.451 52.2162C147.224 51.6295 147.111 50.9695 147.111 50.2362C147.111 48.9428 147.417 47.8962 148.031 47.0962C148.657 46.2962 149.497 45.8628 150.551 45.7962V45.7762ZM150.171 58.5162V59.6362C150.024 59.6362 149.877 59.6162 149.731 59.5762C149.584 59.5362 149.437 59.4828 149.291 59.4162C149.211 59.3895 149.137 59.3628 149.071 59.3362C149.004 59.2962 148.931 59.2495 148.851 59.1962C148.691 59.0895 148.571 59.0228 148.491 58.9962C148.424 58.9562 148.364 58.9295 148.311 58.9162C148.311 58.9162 148.304 58.9162 148.291 58.9162C148.277 58.9162 148.264 58.9162 148.251 58.9162C148.211 58.9162 148.171 58.9228 148.131 58.9362C148.104 58.9362 148.077 58.9495 148.051 58.9762C148.024 59.0028 147.991 59.0428 147.951 59.0962C147.911 59.1495 147.864 59.2228 147.811 59.3162C147.797 59.3428 147.777 59.3628 147.751 59.3762C147.737 59.4028 147.724 59.4228 147.711 59.4362C147.684 59.4628 147.657 59.4828 147.631 59.4962C147.604 59.5095 147.571 59.5162 147.531 59.5162C147.397 59.5162 147.291 59.4428 147.211 59.2962C147.144 59.1495 147.111 58.9428 147.111 58.6762V55.1162C147.111 54.9428 147.151 54.7962 147.231 54.6762C147.311 54.5428 147.411 54.4762 147.531 54.4762C147.637 54.4762 147.717 54.5228 147.771 54.6162C147.837 54.6962 147.897 54.8428 147.951 55.0562C148.057 55.5895 148.197 56.0762 148.371 56.5162C148.557 56.9562 148.791 57.3628 149.071 57.7362C149.231 57.9628 149.397 58.1362 149.571 58.2562C149.744 58.3762 149.944 58.4695 150.171 58.5362V58.5162ZM151.151 46.8962V45.8162C151.257 45.8428 151.351 45.8628 151.431 45.8762C151.524 45.8895 151.611 45.9095 151.691 45.9362C151.837 45.9762 151.991 46.0362 152.151 46.1162C152.324 46.1962 152.544 46.3095 152.811 46.4562L153.051 46.5162C153.091 46.5295 153.131 46.5228 153.171 46.4962C153.211 46.4695 153.237 46.4362 153.251 46.3962L153.411 46.0962C153.451 46.0295 153.497 45.9828 153.551 45.9562C153.604 45.9162 153.657 45.8962 153.711 45.8962C153.831 45.8962 153.917 45.9628 153.971 46.0962C154.037 46.2162 154.071 46.4095 154.071 46.6762V49.8762C154.071 50.0762 154.031 50.2428 153.951 50.3762C153.871 50.4962 153.771 50.5562 153.651 50.5562C153.531 50.5562 153.431 50.5028 153.351 50.3962C153.284 50.2895 153.231 50.1095 153.191 49.8562C153.084 49.1228 152.844 48.4895 152.471 47.9562C152.097 47.4228 151.657 47.0762 151.151 46.9162V46.8962ZM160.168 59.3762H156.908H156.708C156.522 59.3762 156.382 59.3362 156.288 59.2562C156.195 59.1628 156.148 59.0295 156.148 58.8562C156.148 58.7362 156.175 58.6362 156.228 58.5562C156.282 58.4628 156.355 58.3962 156.448 58.3562C156.488 58.3428 156.528 58.3295 156.568 58.3162C156.608 58.2895 156.642 58.2695 156.668 58.2562C156.775 58.1895 156.842 58.1162 156.868 58.0362C156.895 57.9562 156.908 57.8162 156.908 57.6162V47.8162C156.908 47.6295 156.895 47.4962 156.868 47.4162C156.842 47.3362 156.775 47.2628 156.668 47.1962C156.642 47.1828 156.608 47.1695 156.568 47.1562C156.528 47.1295 156.488 47.1095 156.448 47.0962C156.355 47.0562 156.282 46.9962 156.228 46.9162C156.175 46.8228 156.148 46.7162 156.148 46.5962C156.148 46.4095 156.195 46.2762 156.288 46.1962C156.395 46.1028 156.535 46.0562 156.708 46.0562L156.908 46.0362H160.168H160.368C160.555 46.0628 160.688 46.1162 160.768 46.1962C160.848 46.2762 160.888 46.4028 160.888 46.5762C160.888 46.7095 160.868 46.8228 160.828 46.9162C160.788 46.9962 160.715 47.0562 160.608 47.0962L160.388 47.1762C160.322 47.2162 160.268 47.2895 160.228 47.3962C160.188 47.5028 160.168 47.6495 160.168 47.8362V57.5962C160.168 57.7828 160.188 57.9362 160.228 58.0562C160.268 58.1628 160.322 58.2295 160.388 58.2562L160.608 58.3362C160.715 58.3895 160.788 58.4628 160.828 58.5562C160.868 58.6362 160.888 58.7428 160.888 58.8762C160.888 59.0495 160.848 59.1762 160.768 59.2562C160.688 59.3362 160.555 59.3762 160.368 59.3762H160.168ZM160.768 52.0762H161.948V47.8162C161.948 47.6428 161.928 47.5028 161.888 47.3962C161.862 47.2895 161.815 47.2228 161.748 47.1962L161.508 47.0762C161.415 47.0495 161.342 46.9962 161.288 46.9162C161.248 46.8362 161.228 46.7295 161.228 46.5962C161.228 46.4095 161.268 46.2762 161.348 46.1962C161.442 46.1028 161.575 46.0562 161.748 46.0562L161.948 46.0362H165.228H165.428C165.615 46.0628 165.748 46.1162 165.828 46.1962C165.922 46.2762 165.968 46.4095 165.968 46.5962C165.968 46.7162 165.942 46.8228 165.888 46.9162C165.848 46.9962 165.775 47.0562 165.668 47.0962C165.628 47.1095 165.588 47.1295 165.548 47.1562C165.522 47.1695 165.488 47.1828 165.448 47.1962C165.355 47.2628 165.295 47.3362 165.268 47.4162C165.242 47.4962 165.228 47.6362 165.228 47.8362V57.5962C165.228 57.8095 165.235 57.9562 165.248 58.0362C165.275 58.1162 165.342 58.1895 165.448 58.2562C165.475 58.2695 165.508 58.2895 165.548 58.3162C165.588 58.3295 165.628 58.3428 165.668 58.3562C165.775 58.3962 165.848 58.4628 165.888 58.5562C165.942 58.6362 165.968 58.7362 165.968 58.8562C165.968 59.0295 165.922 59.1628 165.828 59.2562C165.748 59.3362 165.615 59.3762 165.428 59.3762H165.228H161.948H161.748C161.575 59.3762 161.442 59.3362 161.348 59.2562C161.268 59.1762 161.228 59.0495 161.228 58.8762C161.228 58.7562 161.255 58.6495 161.308 58.5562C161.362 58.4628 161.428 58.3962 161.508 58.3562L161.748 58.2362C161.815 58.2228 161.862 58.1628 161.888 58.0562C161.928 57.9362 161.948 57.7895 161.948 57.6162V53.1562H160.768V52.0762ZM170.156 48.5362L170.536 50.5562L169.236 56.8562C169.223 56.9095 169.21 56.9628 169.196 57.0162C169.196 57.0562 169.196 57.0962 169.196 57.1362C169.183 57.1762 169.176 57.2228 169.176 57.2762C169.176 57.3162 169.176 57.3562 169.176 57.3962C169.176 57.5828 169.216 57.7562 169.296 57.9162C169.376 58.0628 169.483 58.1762 169.616 58.2562L169.856 58.3962C169.936 58.4628 169.996 58.5428 170.036 58.6362C170.09 58.7162 170.116 58.8095 170.116 58.9162C170.116 59.0628 170.07 59.1762 169.976 59.2562C169.883 59.3362 169.75 59.3762 169.576 59.3762H167.716C167.543 59.3762 167.403 59.3295 167.296 59.2362C167.19 59.1428 167.136 59.0162 167.136 58.8562C167.136 58.7495 167.156 58.6562 167.196 58.5762C167.25 58.4962 167.336 58.4228 167.456 58.3562C167.763 58.1695 167.99 57.9562 168.136 57.7162C168.283 57.4762 168.41 57.1028 168.516 56.5962L170.156 48.5362ZM170.676 46.0362H173.616L175.656 57.5162C175.656 57.5562 175.656 57.5962 175.656 57.6362C175.67 57.6628 175.683 57.6895 175.696 57.7162C175.736 57.9162 175.783 58.0628 175.836 58.1562C175.89 58.2495 175.97 58.3228 176.076 58.3762C176.09 58.3895 176.103 58.4028 176.116 58.4162C176.13 58.4162 176.143 58.4162 176.156 58.4162C176.25 58.4828 176.316 58.5562 176.356 58.6362C176.396 58.7028 176.416 58.7962 176.416 58.9162C176.416 59.0628 176.363 59.1762 176.256 59.2562C176.163 59.3362 176.023 59.3762 175.836 59.3762H172.176C172.043 59.3762 171.93 59.3362 171.836 59.2562C171.743 59.1628 171.696 59.0362 171.696 58.8762C171.696 58.7962 171.703 58.7295 171.716 58.6762C171.73 58.6228 171.756 58.5762 171.796 58.5362C171.823 58.5095 171.856 58.4828 171.896 58.4562C171.936 58.4162 171.983 58.3762 172.036 58.3362C172.05 58.3228 172.056 58.3162 172.056 58.3162C172.07 58.3028 172.083 58.2962 172.096 58.2962C172.176 58.2295 172.23 58.1628 172.256 58.0962C172.283 58.0162 172.296 57.9162 172.296 57.7962L172.276 57.5162L172.036 56.0962H169.996L170.196 54.8962H171.836L170.496 46.9962L170.676 46.0362ZM181.434 59.3762H178.154H177.954C177.78 59.3762 177.647 59.3362 177.554 59.2562C177.46 59.1628 177.414 59.0295 177.414 58.8562C177.414 58.7362 177.44 58.6362 177.494 58.5562C177.547 58.4628 177.62 58.3962 177.714 58.3562C177.754 58.3428 177.787 58.3295 177.814 58.3162C177.854 58.2895 177.894 58.2695 177.934 58.2562C178.027 58.1895 178.087 58.1162 178.114 58.0362C178.14 57.9562 178.154 57.8162 178.154 57.6162V47.8162C178.154 47.6295 178.14 47.4962 178.114 47.4162C178.087 47.3362 178.027 47.2628 177.934 47.1962C177.894 47.1828 177.854 47.1695 177.814 47.1562C177.787 47.1295 177.754 47.1095 177.714 47.0962C177.62 47.0562 177.547 46.9962 177.494 46.9162C177.44 46.8228 177.414 46.7162 177.414 46.5962C177.414 46.4095 177.46 46.2762 177.554 46.1962C177.647 46.1028 177.78 46.0562 177.954 46.0562L178.154 46.0362H181.434H181.674C181.9 46.0628 182.067 46.1228 182.174 46.2162C182.28 46.2962 182.334 46.4295 182.334 46.6162C182.334 46.7495 182.3 46.8628 182.234 46.9562C182.18 47.0362 182.094 47.0962 181.974 47.1362C181.934 47.1495 181.9 47.1628 181.874 47.1762C181.847 47.1895 181.82 47.1962 181.794 47.1962C181.634 47.2628 181.534 47.3428 181.494 47.4362C181.454 47.5295 181.434 47.6895 181.434 47.9162V59.3762ZM181.974 59.3762V58.2762C182.174 58.2495 182.334 58.2095 182.454 58.1562C182.574 58.1028 182.68 58.0362 182.774 57.9562C183.027 57.7562 183.254 57.4562 183.454 57.0562C183.654 56.6428 183.814 56.1695 183.934 55.6362C183.96 55.5295 183.98 55.4362 183.994 55.3562C184.02 55.2762 184.047 55.2028 184.074 55.1362C184.114 55.0028 184.16 54.9095 184.214 54.8562C184.28 54.8028 184.354 54.7762 184.434 54.7762C184.567 54.7762 184.66 54.8295 184.714 54.9362C184.767 55.0295 184.794 55.1895 184.794 55.4162V59.3762H181.974ZM188.222 48.5362L188.602 50.5562L187.302 56.8562C187.289 56.9095 187.275 56.9628 187.262 57.0162C187.262 57.0562 187.262 57.0962 187.262 57.1362C187.249 57.1762 187.242 57.2228 187.242 57.2762C187.242 57.3162 187.242 57.3562 187.242 57.3962C187.242 57.5828 187.282 57.7562 187.362 57.9162C187.442 58.0628 187.549 58.1762 187.682 58.2562L187.922 58.3962C188.002 58.4628 188.062 58.5428 188.102 58.6362C188.155 58.7162 188.182 58.8095 188.182 58.9162C188.182 59.0628 188.135 59.1762 188.042 59.2562C187.949 59.3362 187.815 59.3762 187.642 59.3762H185.782C185.609 59.3762 185.469 59.3295 185.362 59.2362C185.255 59.1428 185.202 59.0162 185.202 58.8562C185.202 58.7495 185.222 58.6562 185.262 58.5762C185.315 58.4962 185.402 58.4228 185.522 58.3562C185.829 58.1695 186.055 57.9562 186.202 57.7162C186.349 57.4762 186.475 57.1028 186.582 56.5962L188.222 48.5362ZM188.742 46.0362H191.682L193.722 57.5162C193.722 57.5562 193.722 57.5962 193.722 57.6362C193.735 57.6628 193.749 57.6895 193.762 57.7162C193.802 57.9162 193.849 58.0628 193.902 58.1562C193.955 58.2495 194.035 58.3228 194.142 58.3762C194.155 58.3895 194.169 58.4028 194.182 58.4162C194.195 58.4162 194.209 58.4162 194.222 58.4162C194.315 58.4828 194.382 58.5562 194.422 58.6362C194.462 58.7028 194.482 58.7962 194.482 58.9162C194.482 59.0628 194.429 59.1762 194.322 59.2562C194.229 59.3362 194.089 59.3762 193.902 59.3762H190.242C190.109 59.3762 189.995 59.3362 189.902 59.2562C189.809 59.1628 189.762 59.0362 189.762 58.8762C189.762 58.7962 189.769 58.7295 189.782 58.6762C189.795 58.6228 189.822 58.5762 189.862 58.5362C189.889 58.5095 189.922 58.4828 189.962 58.4562C190.002 58.4162 190.049 58.3762 190.102 58.3362C190.115 58.3228 190.122 58.3162 190.122 58.3162C190.135 58.3028 190.149 58.2962 190.162 58.2962C190.242 58.2295 190.295 58.1628 190.322 58.0962C190.349 58.0162 190.362 57.9162 190.362 57.7962L190.342 57.5162L190.102 56.0962H188.062L188.262 54.8962H189.902L188.562 46.9962L188.742 46.0362Z" fill="#B5962E"/>
</svg>
